G04 Layer_Color=8388736*
%FSAX24Y24*%
%MOIN*%
G70*
G01*
G75*
%ADD20C,0.0984*%
G04:AMPARAMS|DCode=44|XSize=23.7mil|YSize=43.4mil|CornerRadius=6mil|HoleSize=0mil|Usage=FLASHONLY|Rotation=90.000|XOffset=0mil|YOffset=0mil|HoleType=Round|Shape=RoundedRectangle|*
%AMROUNDEDRECTD44*
21,1,0.0237,0.0315,0,0,90.0*
21,1,0.0118,0.0434,0,0,90.0*
1,1,0.0119,0.0157,0.0059*
1,1,0.0119,0.0157,-0.0059*
1,1,0.0119,-0.0157,-0.0059*
1,1,0.0119,-0.0157,0.0059*
%
%ADD44ROUNDEDRECTD44*%
%ADD45R,0.0434X0.0395*%
%ADD46R,0.0316X0.0277*%
%ADD47R,0.0277X0.0316*%
%ADD48R,0.0415X0.0631*%
%ADD49R,0.0631X0.0415*%
%ADD50C,0.0830*%
%ADD51R,0.0830X0.0830*%
%ADD52C,0.0080*%
%ADD53C,0.0580*%
D20*
X009700Y019150D02*
D03*
D44*
X005683Y017800D02*
D03*
Y017544D02*
D03*
X004817Y018056D02*
D03*
Y017800D02*
D03*
Y017544D02*
D03*
X005683Y018056D02*
D03*
D45*
X007700Y016844D02*
D03*
Y017356D02*
D03*
Y018506D02*
D03*
Y017994D02*
D03*
X006400Y017931D02*
D03*
Y017419D02*
D03*
D46*
X004800Y016603D02*
D03*
Y016997D02*
D03*
D47*
X003953Y018900D02*
D03*
X004347D02*
D03*
X005650D02*
D03*
X005256D02*
D03*
X009147Y018000D02*
D03*
X008753D02*
D03*
X009147Y017350D02*
D03*
X008753D02*
D03*
D48*
X005700Y014000D02*
D03*
X005011D02*
D03*
X006250Y009150D02*
D03*
X005561D02*
D03*
D49*
X007350Y005450D02*
D03*
Y006139D02*
D03*
X007500Y013350D02*
D03*
Y012661D02*
D03*
X008600Y008839D02*
D03*
Y008150D02*
D03*
X007200Y002811D02*
D03*
Y003500D02*
D03*
D50*
X001650Y017700D02*
D03*
Y016700D02*
D03*
Y018700D02*
D03*
Y013150D02*
D03*
Y006150D02*
D03*
Y009150D02*
D03*
Y005150D02*
D03*
Y011150D02*
D03*
Y010150D02*
D03*
Y007150D02*
D03*
Y008150D02*
D03*
Y012150D02*
D03*
D51*
Y015700D02*
D03*
Y004150D02*
D03*
D52*
X001500Y001500D02*
D03*
X013500Y018500D02*
D03*
D53*
X002700Y018400D02*
D03*
X000600Y013500D02*
D03*
X000700Y003400D02*
D03*
X008550Y004750D02*
D03*
X009100Y000550D02*
D03*
X008750Y011150D02*
D03*
X008600Y009900D02*
D03*
X006700Y014000D02*
D03*
X007100Y014550D02*
D03*
X007186Y000814D02*
D03*
X010400Y017350D02*
D03*
X007450Y010100D02*
D03*
X007350Y004650D02*
D03*
M02*
