M48
;Layer_Color=9474304
;FILE_FORMAT=2:4
INCH
;TYPE=PLATED
T1F00S00C0.0280
T2F00S00C0.0430
T3F00S00C0.0591
;TYPE=NON_PLATED
T4F00S00C0.1400
%
T01
X000700Y003400
X007350Y004650
X008550Y004750
X009100Y000550
X007186Y000814
X007450Y010100
X008600Y009900
X008750Y011150
X006700Y014000
X007100Y014550
X010400Y017350
X002700Y018400
X000600Y013500
T02
X001650Y004150
Y005150
Y006150
Y007150
Y008150
Y009150
Y010150
Y011150
Y012150
Y013150
Y015700
Y016700
Y017700
Y018700
T03
X009700Y019150
X004287Y015804
T04
X001500Y001500
X013500Y018500
M30
