G04 Layer_Physical_Order=2*
G04 Layer_Color=16711680*
%FSAX24Y24*%
%MOIN*%
G70*
G01*
G75*
%ADD16C,0.0100*%
%ADD17C,0.0200*%
%ADD18C,0.0750*%
%ADD19R,0.0750X0.0750*%
%ADD20C,0.0984*%
%ADD21C,0.0500*%
%ADD22R,0.2402X0.0433*%
%ADD23R,0.0787X0.1535*%
%ADD24R,0.0512X0.0276*%
%ADD25R,0.0433X0.2402*%
%ADD26R,0.1535X0.0787*%
%ADD27R,0.0276X0.0512*%
%ADD28R,0.0354X0.1063*%
%ADD29R,0.1380X0.2000*%
%ADD30R,0.2500X0.2500*%
%ADD31R,0.2500X0.2500*%
%ADD32R,0.1250X0.2500*%
%ADD33R,0.1150X0.2500*%
%ADD34R,0.3800X0.1600*%
%ADD35R,0.3550X0.1600*%
%ADD36R,0.2500X0.2650*%
%ADD37R,0.2400X0.2050*%
%ADD38R,0.2400X0.1950*%
%ADD39R,0.1600X1.2850*%
%ADD40R,0.1000X0.2500*%
%ADD41R,0.0984X0.0984*%
G36*
X014850Y014200D02*
X012660D01*
X012650Y014202D01*
X011400D01*
X011361Y014194D01*
X011328Y014172D01*
X011306Y014139D01*
X011298Y014100D01*
Y011600D01*
X011306Y011561D01*
X011328Y011528D01*
X011361Y011506D01*
X011400Y011498D01*
X012650D01*
X012660Y011500D01*
X014850D01*
Y009050D01*
X012560D01*
X012550Y009052D01*
X011400D01*
X011361Y009044D01*
X011328Y009022D01*
X011306Y008989D01*
X011298Y008950D01*
Y006450D01*
X011306Y006411D01*
X011328Y006378D01*
X011361Y006356D01*
X011400Y006348D01*
X012550D01*
X012560Y006350D01*
X014850D01*
Y003850D01*
X012410D01*
X012400Y003852D01*
X011400D01*
X011394Y003851D01*
X011327D01*
Y003820D01*
X011306Y003789D01*
X011298Y003750D01*
Y001250D01*
X011306Y001211D01*
X011328Y001178D01*
X011361Y001156D01*
X011400Y001148D01*
X012400D01*
X012410Y001150D01*
X014850D01*
Y000150D01*
X000150D01*
Y019850D01*
X003400D01*
Y017260D01*
X003398Y017250D01*
Y014600D01*
X003406Y014561D01*
X003428Y014528D01*
X003461Y014506D01*
X003500Y014498D01*
X006000D01*
X006039Y014506D01*
X006063Y014522D01*
X006101D01*
Y014594D01*
X006102Y014600D01*
Y017250D01*
X006100Y017260D01*
Y019850D01*
X014850D01*
Y014200D01*
D02*
G37*
%LPC*%
G36*
X002250Y019403D02*
X001250D01*
X001191Y019391D01*
X001142Y019358D01*
X000642Y018858D01*
X000609Y018809D01*
X000597Y018750D01*
Y015950D01*
X000609Y015891D01*
X000642Y015842D01*
X000892Y015592D01*
X000941Y015559D01*
X001000Y015547D01*
X001215D01*
Y015265D01*
X002085D01*
Y016135D01*
X002085D01*
X002100Y016229D01*
X002112Y016238D01*
X002193Y016337D01*
X002253Y016450D01*
X002291Y016573D01*
X002303Y016700D01*
X002291Y016827D01*
X002253Y016950D01*
X002193Y017063D01*
X002112Y017162D01*
X002013Y017243D01*
X001966Y017268D01*
X001956Y017387D01*
X001960Y017390D01*
X002030Y017481D01*
X002074Y017586D01*
X002089Y017700D01*
X002074Y017814D01*
X002030Y017919D01*
X001960Y018010D01*
X001869Y018080D01*
X001764Y018124D01*
X001650Y018139D01*
X001536Y018124D01*
X001431Y018080D01*
X001340Y018010D01*
X001270Y017919D01*
X001226Y017814D01*
X001211Y017700D01*
X001226Y017586D01*
X001270Y017481D01*
X001340Y017390D01*
X001344Y017387D01*
X001334Y017268D01*
X001287Y017243D01*
X001188Y017162D01*
X001107Y017063D01*
X001047Y016950D01*
X001009Y016827D01*
X001003Y016762D01*
X000903Y016767D01*
Y018687D01*
X001189Y018972D01*
X001270Y018919D01*
X001226Y018814D01*
X001211Y018700D01*
X001226Y018586D01*
X001270Y018481D01*
X001340Y018390D01*
X001431Y018320D01*
X001536Y018276D01*
X001650Y018261D01*
X001764Y018276D01*
X001869Y018320D01*
X001960Y018390D01*
X002030Y018481D01*
X002074Y018586D01*
X002089Y018700D01*
X002074Y018814D01*
X002030Y018919D01*
X001970Y018997D01*
X001983Y019049D01*
X002011Y019097D01*
X002187D01*
X002519Y018765D01*
X002522Y018752D01*
X002516Y018650D01*
X002479Y018621D01*
X002429Y018556D01*
X002398Y018481D01*
X002387Y018400D01*
X002398Y018319D01*
X002429Y018244D01*
X002479Y018179D01*
X002544Y018129D01*
X002619Y018098D01*
X002700Y018087D01*
X002781Y018098D01*
X002856Y018129D01*
X002921Y018179D01*
X002971Y018244D01*
X003002Y018319D01*
X003013Y018400D01*
X003002Y018481D01*
X002971Y018556D01*
X002921Y018621D01*
X002856Y018671D01*
X002853Y018672D01*
Y018800D01*
X002841Y018859D01*
X002808Y018908D01*
X002358Y019358D01*
X002309Y019391D01*
X002250Y019403D01*
D02*
G37*
G36*
X013500Y019264D02*
X013351Y019249D01*
X013208Y019206D01*
X013076Y019135D01*
X012960Y019040D01*
X012865Y018924D01*
X012794Y018792D01*
X012751Y018649D01*
X012736Y018500D01*
X012751Y018351D01*
X012794Y018208D01*
X012865Y018076D01*
X012960Y017960D01*
X013076Y017865D01*
X013208Y017794D01*
X013351Y017751D01*
X013500Y017736D01*
X013649Y017751D01*
X013792Y017794D01*
X013924Y017865D01*
X014040Y017960D01*
X014135Y018076D01*
X014206Y018208D01*
X014249Y018351D01*
X014264Y018500D01*
X014249Y018649D01*
X014206Y018792D01*
X014135Y018924D01*
X014040Y019040D01*
X013924Y019135D01*
X013792Y019206D01*
X013649Y019249D01*
X013500Y019264D01*
D02*
G37*
G36*
X010400Y017663D02*
X010319Y017652D01*
X010244Y017621D01*
X010179Y017571D01*
X010129Y017506D01*
X010098Y017431D01*
X010087Y017350D01*
X010098Y017269D01*
X010129Y017194D01*
X010075Y017100D01*
X009160D01*
Y014900D01*
X009198D01*
Y014282D01*
X009098Y014240D01*
X008644Y014694D01*
X008578Y014738D01*
X008500Y014754D01*
X007334D01*
X007321Y014771D01*
X007256Y014821D01*
X007181Y014852D01*
X007100Y014863D01*
X007019Y014852D01*
X006944Y014821D01*
X006879Y014771D01*
X006829Y014706D01*
X006798Y014631D01*
X006787Y014550D01*
X006798Y014469D01*
X006829Y014394D01*
X006833Y014389D01*
X006792Y014321D01*
X006773Y014303D01*
X006700Y014313D01*
X006619Y014302D01*
X006544Y014271D01*
X006479Y014221D01*
X006429Y014156D01*
X006428Y014154D01*
X005156D01*
Y014190D01*
X004444D01*
Y013752D01*
X004400D01*
X004361Y013744D01*
X004328Y013722D01*
X004325Y013718D01*
X004306D01*
Y013690D01*
X004306Y013689D01*
X004298Y013650D01*
Y013154D01*
X003350D01*
X003272Y013138D01*
X003206Y013094D01*
X002706Y012594D01*
X002662Y012528D01*
X002646Y012450D01*
Y010734D01*
X002216Y010304D01*
X002057D01*
X002030Y010369D01*
X001960Y010460D01*
X001869Y010530D01*
X001764Y010574D01*
X001650Y010589D01*
X001536Y010574D01*
X001431Y010530D01*
X001340Y010460D01*
X001270Y010369D01*
X001226Y010264D01*
X001211Y010150D01*
X001226Y010036D01*
X001270Y009931D01*
X001340Y009840D01*
X001431Y009770D01*
X001536Y009726D01*
X001650Y009711D01*
X001764Y009726D01*
X001869Y009770D01*
X001960Y009840D01*
X002003Y009896D01*
X002300D01*
X002378Y009912D01*
X002444Y009956D01*
X002994Y010506D01*
X002994Y010506D01*
X003038Y010572D01*
X003054Y010650D01*
Y012366D01*
X003434Y012746D01*
X004298D01*
Y012050D01*
X004306Y012011D01*
X004306Y012010D01*
Y011982D01*
X004325D01*
X004328Y011978D01*
X004361Y011956D01*
X004400Y011948D01*
X007783D01*
Y011549D01*
X008417D01*
Y014151D01*
X007783D01*
Y013752D01*
X007026D01*
X006986Y013818D01*
X006974Y013852D01*
X007002Y013919D01*
X007013Y014000D01*
X007002Y014081D01*
X006971Y014156D01*
X006967Y014161D01*
X007008Y014229D01*
X007027Y014247D01*
X007100Y014237D01*
X007181Y014248D01*
X007256Y014279D01*
X007321Y014329D01*
X007334Y014346D01*
X008416D01*
X008782Y013980D01*
Y013206D01*
X008748D01*
Y012494D01*
X009198D01*
Y009732D01*
X009098Y009690D01*
X008910Y009879D01*
X008913Y009900D01*
X008902Y009981D01*
X008871Y010056D01*
X008821Y010121D01*
X008756Y010171D01*
X008681Y010202D01*
X008600Y010213D01*
X008519Y010202D01*
X008444Y010171D01*
X008379Y010121D01*
X008329Y010056D01*
X008298Y009981D01*
X008287Y009900D01*
X008298Y009819D01*
X008329Y009744D01*
X008379Y009679D01*
X008444Y009629D01*
X008519Y009598D01*
X008600Y009587D01*
X008621Y009590D01*
X008796Y009416D01*
Y008056D01*
X008762D01*
Y007344D01*
X009198D01*
Y002906D01*
X008748D01*
Y002194D01*
X008782D01*
Y001420D01*
X008380Y001018D01*
X007420D01*
X007407Y001035D01*
X007342Y001085D01*
X007267Y001116D01*
X007186Y001127D01*
X007105Y001116D01*
X007029Y001085D01*
X006965Y001035D01*
X006915Y000971D01*
X006884Y000895D01*
X006873Y000814D01*
X006884Y000733D01*
X006915Y000658D01*
X006965Y000593D01*
X007029Y000543D01*
X007105Y000512D01*
X007186Y000501D01*
X007267Y000512D01*
X007342Y000543D01*
X007407Y000593D01*
X007420Y000610D01*
X008464D01*
X008542Y000626D01*
X008608Y000670D01*
X009130Y001192D01*
X009174Y001258D01*
X009190Y001336D01*
Y001969D01*
X009200Y001998D01*
X009290Y002050D01*
X009300Y002048D01*
X010900D01*
X010939Y002056D01*
X010940Y002056D01*
X010956D01*
Y002067D01*
X010972Y002078D01*
X010994Y002111D01*
X011002Y002150D01*
Y015000D01*
X010994Y015039D01*
X010972Y015072D01*
X010939Y015094D01*
X010900Y015102D01*
X010740D01*
Y017100D01*
X010725D01*
X010671Y017194D01*
X010702Y017269D01*
X010713Y017350D01*
X010702Y017431D01*
X010671Y017506D01*
X010621Y017571D01*
X010556Y017621D01*
X010481Y017652D01*
X010400Y017663D01*
D02*
G37*
G36*
X001650Y013589D02*
X001536Y013574D01*
X001431Y013530D01*
X001340Y013460D01*
X001270Y013369D01*
X001226Y013264D01*
X001211Y013150D01*
X001226Y013036D01*
X001270Y012931D01*
X001340Y012840D01*
X001431Y012770D01*
X001536Y012726D01*
X001650Y012711D01*
X001764Y012726D01*
X001869Y012770D01*
X001960Y012840D01*
X002030Y012931D01*
X002074Y013036D01*
X002089Y013150D01*
X002074Y013264D01*
X002030Y013369D01*
X001960Y013460D01*
X001869Y013530D01*
X001764Y013574D01*
X001650Y013589D01*
D02*
G37*
G36*
Y012589D02*
X001536Y012574D01*
X001431Y012530D01*
X001340Y012460D01*
X001270Y012369D01*
X001226Y012264D01*
X001211Y012150D01*
X001226Y012036D01*
X001270Y011931D01*
X001340Y011840D01*
X001431Y011770D01*
X001536Y011726D01*
X001650Y011711D01*
X001764Y011726D01*
X001869Y011770D01*
X001960Y011840D01*
X002030Y011931D01*
X002074Y012036D01*
X002089Y012150D01*
X002074Y012264D01*
X002030Y012369D01*
X001960Y012460D01*
X001869Y012530D01*
X001764Y012574D01*
X001650Y012589D01*
D02*
G37*
G36*
Y011589D02*
X001536Y011574D01*
X001431Y011530D01*
X001340Y011460D01*
X001270Y011369D01*
X001226Y011264D01*
X001211Y011150D01*
X001226Y011036D01*
X001270Y010931D01*
X001340Y010840D01*
X001431Y010770D01*
X001536Y010726D01*
X001650Y010711D01*
X001764Y010726D01*
X001869Y010770D01*
X001960Y010840D01*
X002030Y010931D01*
X002074Y011036D01*
X002089Y011150D01*
X002074Y011264D01*
X002030Y011369D01*
X001960Y011460D01*
X001869Y011530D01*
X001764Y011574D01*
X001650Y011589D01*
D02*
G37*
G36*
X006101Y011611D02*
X003499D01*
Y011506D01*
X003498Y011500D01*
Y009450D01*
X003499Y009444D01*
Y009369D01*
X003541D01*
X003561Y009356D01*
X003600Y009348D01*
X006000D01*
X006039Y009356D01*
X006059Y009369D01*
X006101D01*
Y009444D01*
X006102Y009450D01*
Y011500D01*
X006101Y011506D01*
Y011611D01*
D02*
G37*
G36*
X007450Y010413D02*
X007369Y010402D01*
X007294Y010371D01*
X007229Y010321D01*
X007179Y010256D01*
X007148Y010181D01*
X007137Y010100D01*
X007148Y010019D01*
X007179Y009944D01*
X007229Y009879D01*
X007246Y009866D01*
Y009284D01*
X006966Y009004D01*
X005156D01*
Y009038D01*
X004444D01*
Y008602D01*
X004400D01*
X004361Y008594D01*
X004328Y008572D01*
X004323Y008565D01*
X004306D01*
Y008540D01*
X004306Y008539D01*
X004298Y008500D01*
Y007354D01*
X002036D01*
X002030Y007369D01*
X001960Y007460D01*
X001869Y007530D01*
X001764Y007574D01*
X001650Y007589D01*
X001536Y007574D01*
X001431Y007530D01*
X001340Y007460D01*
X001270Y007369D01*
X001226Y007264D01*
X001211Y007150D01*
X001226Y007036D01*
X001270Y006931D01*
X001340Y006840D01*
X001431Y006770D01*
X001536Y006726D01*
X001650Y006711D01*
X001764Y006726D01*
X001869Y006770D01*
X001960Y006840D01*
X002030Y006931D01*
X002036Y006946D01*
X004298D01*
Y006900D01*
X004306Y006861D01*
X004306Y006860D01*
Y006830D01*
X004327D01*
X004328Y006828D01*
X004361Y006806D01*
X004400Y006798D01*
X007798D01*
Y006399D01*
X008431D01*
Y009001D01*
X007798D01*
Y008602D01*
X007282D01*
X007240Y008702D01*
X007594Y009056D01*
X007638Y009122D01*
X007654Y009200D01*
Y009866D01*
X007671Y009879D01*
X007721Y009944D01*
X007752Y010019D01*
X007763Y010100D01*
X007752Y010181D01*
X007721Y010256D01*
X007671Y010321D01*
X007606Y010371D01*
X007531Y010402D01*
X007450Y010413D01*
D02*
G37*
G36*
X001650Y009589D02*
X001536Y009574D01*
X001431Y009530D01*
X001340Y009460D01*
X001270Y009369D01*
X001226Y009264D01*
X001211Y009150D01*
X001226Y009036D01*
X001270Y008931D01*
X001340Y008840D01*
X001431Y008770D01*
X001536Y008726D01*
X001650Y008711D01*
X001764Y008726D01*
X001869Y008770D01*
X001960Y008840D01*
X002030Y008931D01*
X002074Y009036D01*
X002089Y009150D01*
X002074Y009264D01*
X002030Y009369D01*
X001960Y009460D01*
X001869Y009530D01*
X001764Y009574D01*
X001650Y009589D01*
D02*
G37*
G36*
Y008589D02*
X001536Y008574D01*
X001431Y008530D01*
X001340Y008460D01*
X001270Y008369D01*
X001226Y008264D01*
X001211Y008150D01*
X001226Y008036D01*
X001270Y007931D01*
X001340Y007840D01*
X001431Y007770D01*
X001536Y007726D01*
X001650Y007711D01*
X001764Y007726D01*
X001869Y007770D01*
X001960Y007840D01*
X002030Y007931D01*
X002074Y008036D01*
X002089Y008150D01*
X002074Y008264D01*
X002030Y008369D01*
X001960Y008460D01*
X001869Y008530D01*
X001764Y008574D01*
X001650Y008589D01*
D02*
G37*
G36*
Y006589D02*
X001536Y006574D01*
X001431Y006530D01*
X001340Y006460D01*
X001270Y006369D01*
X001226Y006264D01*
X001211Y006150D01*
X001226Y006036D01*
X001270Y005931D01*
X001340Y005840D01*
X001431Y005770D01*
X001536Y005726D01*
X001650Y005711D01*
X001764Y005726D01*
X001869Y005770D01*
X001960Y005840D01*
X002030Y005931D01*
X002074Y006036D01*
X002089Y006150D01*
X002074Y006264D01*
X002030Y006369D01*
X001960Y006460D01*
X001869Y006530D01*
X001764Y006574D01*
X001650Y006589D01*
D02*
G37*
G36*
Y005589D02*
X001536Y005574D01*
X001431Y005530D01*
X001340Y005460D01*
X001270Y005369D01*
X001226Y005264D01*
X001211Y005150D01*
X001226Y005036D01*
X001270Y004931D01*
X001340Y004840D01*
X001431Y004770D01*
X001536Y004726D01*
X001650Y004711D01*
X001764Y004726D01*
X001869Y004770D01*
X001960Y004840D01*
X002030Y004931D01*
X002074Y005036D01*
X002089Y005150D01*
X002074Y005264D01*
X002030Y005369D01*
X001960Y005460D01*
X001869Y005530D01*
X001764Y005574D01*
X001650Y005589D01*
D02*
G37*
G36*
X006101Y006459D02*
X003499D01*
Y006306D01*
X003498Y006300D01*
Y004350D01*
X003499Y004344D01*
Y004222D01*
X006101D01*
Y004344D01*
X006102Y004350D01*
Y006300D01*
X006101Y006306D01*
Y006459D01*
D02*
G37*
G36*
X007350Y004963D02*
X007269Y004952D01*
X007194Y004921D01*
X007129Y004871D01*
X007079Y004806D01*
X007048Y004731D01*
X007037Y004650D01*
X007048Y004569D01*
X007079Y004494D01*
X007129Y004429D01*
X007146Y004416D01*
Y004284D01*
X006718Y003856D01*
X005156D01*
Y003890D01*
X004444D01*
Y003452D01*
X004400D01*
X004361Y003444D01*
X004328Y003422D01*
X004325Y003418D01*
X004306D01*
Y003390D01*
X004306Y003389D01*
X004298Y003350D01*
Y002804D01*
X003984D01*
X002494Y004294D01*
X002428Y004338D01*
X002350Y004354D01*
X002085D01*
Y004585D01*
X001215D01*
Y003715D01*
X002085D01*
Y003946D01*
X002266D01*
X003756Y002456D01*
X003822Y002412D01*
X003900Y002396D01*
X004298D01*
Y001750D01*
X004306Y001711D01*
X004306Y001710D01*
Y001682D01*
X004325D01*
X004328Y001678D01*
X004361Y001656D01*
X004400Y001648D01*
X007783D01*
Y001249D01*
X008417D01*
Y003851D01*
X007783D01*
Y003452D01*
X007032D01*
X006990Y003552D01*
X007494Y004056D01*
X007538Y004122D01*
X007554Y004200D01*
Y004416D01*
X007571Y004429D01*
X007621Y004494D01*
X007652Y004569D01*
X007663Y004650D01*
X007652Y004731D01*
X007621Y004806D01*
X007571Y004871D01*
X007506Y004921D01*
X007431Y004952D01*
X007350Y004963D01*
D02*
G37*
G36*
X001500Y002264D02*
X001351Y002249D01*
X001208Y002206D01*
X001076Y002135D01*
X000960Y002040D01*
X000865Y001924D01*
X000794Y001792D01*
X000751Y001649D01*
X000736Y001500D01*
X000751Y001351D01*
X000794Y001208D01*
X000865Y001076D01*
X000960Y000960D01*
X001076Y000865D01*
X001208Y000794D01*
X001351Y000751D01*
X001500Y000736D01*
X001649Y000751D01*
X001792Y000794D01*
X001924Y000865D01*
X002040Y000960D01*
X002135Y001076D01*
X002206Y001208D01*
X002249Y001351D01*
X002264Y001500D01*
X002249Y001649D01*
X002206Y001792D01*
X002135Y001924D01*
X002040Y002040D01*
X001924Y002135D01*
X001792Y002206D01*
X001649Y002249D01*
X001500Y002264D01*
D02*
G37*
G36*
X006101Y001311D02*
X003499D01*
Y000678D01*
X006101D01*
Y001311D01*
D02*
G37*
%LPD*%
G36*
X001740Y017036D02*
X001824Y017001D01*
X001896Y016946D01*
X001951Y016874D01*
X001986Y016790D01*
X001998Y016700D01*
X001986Y016610D01*
X001951Y016526D01*
X001896Y016454D01*
X001824Y016399D01*
X001740Y016364D01*
X001650Y016352D01*
X001560Y016364D01*
X001476Y016399D01*
X001404Y016454D01*
X001349Y016526D01*
X001314Y016610D01*
X001302Y016700D01*
X001314Y016790D01*
X001349Y016874D01*
X001404Y016946D01*
X001476Y017001D01*
X001560Y017036D01*
X001650Y017048D01*
X001740Y017036D01*
D02*
G37*
D16*
X002700Y018400D02*
Y018800D01*
X002250Y019250D02*
X002700Y018800D01*
X001250Y019250D02*
X002250D01*
X000750Y018750D02*
X001250Y019250D01*
X000750Y015950D02*
Y018750D01*
X008750Y019150D02*
X009700D01*
X008500Y018900D02*
X008750Y019150D01*
X008500Y018000D02*
Y018900D01*
X008250Y016826D02*
Y017750D01*
Y016826D02*
X008330Y016746D01*
X004800Y012850D02*
Y012900D01*
X010088Y012850D02*
X010100Y012862D01*
X007100Y014500D02*
Y014550D01*
X004800Y009686D02*
Y011295D01*
Y004538D02*
Y006143D01*
X004802Y007700D02*
X008114D01*
X004800Y007698D02*
X004802Y007700D01*
X010102Y002564D02*
Y007700D01*
X010088Y002550D02*
X010102Y002564D01*
X010088Y007714D02*
Y012850D01*
Y007714D02*
X010102Y007700D01*
X004750Y002600D02*
X004800Y002550D01*
X008100D01*
X011643Y012850D02*
X013700D01*
X011657Y007700D02*
X013700D01*
X011643Y002550D02*
X013650D01*
X010100Y012862D02*
Y016000D01*
X009990D02*
X010400Y016410D01*
X008330Y016000D02*
Y016746D01*
X004548Y007950D02*
X004800Y007698D01*
X004500Y007150D02*
X004800Y007450D01*
Y007698D01*
X004287Y015804D02*
X004846D01*
X004850Y015800D01*
Y014888D02*
Y015800D01*
Y018850D01*
X007780Y018500D02*
X008280Y018000D01*
X008250Y017750D02*
X008500Y018000D01*
X008280D02*
X008500D01*
X001000Y015700D02*
X001650D01*
X000750Y015950D02*
X001000Y015700D01*
D17*
X009000Y007700D02*
Y009500D01*
X008600Y009900D02*
X009000Y009500D01*
X004800Y012850D02*
X004800Y012850D01*
X008100D01*
X006650Y013950D02*
X006700Y014000D01*
X007100Y014550D02*
X008500D01*
X008986Y014064D01*
Y012850D02*
Y014064D01*
X004800Y008800D02*
X007050D01*
X010400Y016410D02*
Y017350D01*
X001650Y007150D02*
X004500D01*
X007186Y000814D02*
X008464D01*
X008986Y001336D01*
Y002550D01*
X003350Y012950D02*
X004550D01*
X004650Y013050D01*
X002850Y012450D02*
X003350Y012950D01*
X001650Y004150D02*
X002350D01*
X003900Y002600D01*
X004750D01*
X004800Y013950D02*
X006650D01*
X001700Y010100D02*
X002300D01*
X002850Y010650D01*
Y012450D01*
X007450Y009200D02*
Y010100D01*
X007050Y008800D02*
X007450Y009200D01*
X004800Y003652D02*
X006802D01*
X007350Y004200D01*
Y004650D01*
D18*
X001650Y017700D02*
D03*
Y016700D02*
D03*
Y018700D02*
D03*
Y013150D02*
D03*
Y006150D02*
D03*
Y009150D02*
D03*
Y005150D02*
D03*
Y011150D02*
D03*
Y010150D02*
D03*
Y007150D02*
D03*
Y008150D02*
D03*
Y012150D02*
D03*
D19*
Y015700D02*
D03*
Y004150D02*
D03*
D20*
X009700Y019150D02*
D03*
D21*
X002700Y018400D02*
D03*
X000600Y013500D02*
D03*
X000700Y003400D02*
D03*
X008550Y004750D02*
D03*
X009100Y000550D02*
D03*
X008750Y011150D02*
D03*
X008600Y009900D02*
D03*
X006700Y014000D02*
D03*
X007100Y014550D02*
D03*
X007186Y000814D02*
D03*
X010400Y017350D02*
D03*
X007450Y010100D02*
D03*
X007350Y004650D02*
D03*
D22*
X004800Y011295D02*
D03*
Y014838D02*
D03*
Y006143D02*
D03*
Y009686D02*
D03*
Y000995D02*
D03*
Y004538D02*
D03*
D23*
Y012850D02*
D03*
Y007698D02*
D03*
Y002550D02*
D03*
D24*
Y013952D02*
D03*
Y008800D02*
D03*
Y003652D02*
D03*
D25*
X011643Y012850D02*
D03*
X008100D02*
D03*
X011657Y007700D02*
D03*
X008114D02*
D03*
X011643Y002550D02*
D03*
X008100D02*
D03*
D26*
X010088Y012850D02*
D03*
X010102Y007700D02*
D03*
X010088Y002550D02*
D03*
D27*
X008986Y012850D02*
D03*
X009000Y007700D02*
D03*
X008986Y002550D02*
D03*
D28*
X005658Y016150D02*
D03*
X006800D02*
D03*
D29*
X009950Y016000D02*
D03*
X008330D02*
D03*
D30*
X013550Y002500D02*
D03*
Y007700D02*
D03*
Y012850D02*
D03*
D31*
X004750Y018500D02*
D03*
X007780D02*
D03*
D32*
X012025Y012850D02*
D03*
D33*
X011975Y007700D02*
D03*
D34*
X006300Y012850D02*
D03*
Y002550D02*
D03*
D35*
X006175Y007700D02*
D03*
D36*
X004750Y015925D02*
D03*
D37*
X004800Y010475D02*
D03*
D38*
Y005325D02*
D03*
D39*
X010100Y008575D02*
D03*
D40*
X011900Y002500D02*
D03*
D41*
X004287Y015804D02*
D03*
M02*
