G04 Layer_Color=32896*
%FSAX24Y24*%
%MOIN*%
G70*
G01*
G75*
%ADD16C,0.0100*%
%ADD43C,0.0060*%
D16*
X002750Y001500D02*
G03*
X002750Y001500I-001250J000000D01*
G01*
X014750Y018500D02*
G03*
X014750Y018500I-001250J000000D01*
G01*
X003422Y010941D02*
Y015193D01*
X006178D01*
X006200Y010938D02*
Y015188D01*
X003422Y010941D02*
X006178D01*
X003422Y005788D02*
Y010040D01*
X006178D01*
X006200Y005786D02*
Y010036D01*
X003422Y005788D02*
X006178D01*
X003422Y000641D02*
Y004893D01*
X006178D01*
X006200Y000638D02*
Y004888D01*
X003422Y000641D02*
X006178D01*
X007746Y011472D02*
X011998D01*
X007746D02*
Y014228D01*
X007750Y014250D02*
X012000D01*
X011998Y011472D02*
Y014228D01*
X007760Y006322D02*
X012012D01*
X007760D02*
Y009078D01*
X007764Y009100D02*
X012014D01*
X012012Y006322D02*
Y009078D01*
X007746Y001172D02*
X011998D01*
X007746D02*
Y003928D01*
X007750Y003950D02*
X012000D01*
X011998Y001172D02*
Y003928D01*
X014850Y000150D02*
Y019850D01*
X000150Y000150D02*
X014850D01*
X000150D02*
Y019850D01*
X014850D01*
X014200Y016950D02*
X014400D01*
X014300D01*
Y016450D01*
X014400Y016350D01*
X014500D01*
X014600Y016450D01*
X014000Y016850D02*
X013900Y016950D01*
X013700D01*
X013600Y016850D01*
Y016750D01*
X013700Y016650D01*
X013800D01*
X013700D01*
X013600Y016550D01*
Y016450D01*
X013700Y016350D01*
X013900D01*
X014000Y016450D01*
X002700Y003550D02*
X002900D01*
X002800D01*
Y003050D01*
X002900Y002950D01*
X003000D01*
X003100Y003050D01*
X002100Y002950D02*
X002500D01*
X002100Y003350D01*
Y003450D01*
X002200Y003550D01*
X002400D01*
X002500Y003450D01*
X011200Y016150D02*
Y015550D01*
X011500D01*
X011600Y015650D01*
Y015850D01*
X011500Y015950D01*
X011200D01*
X011400D02*
X011600Y016150D01*
X011800D02*
X012000D01*
X011900D01*
Y015550D01*
X011800Y015650D01*
X012600Y016150D02*
Y015550D01*
X012300Y015850D01*
X012700D01*
X014250Y011250D02*
Y010650D01*
X013950D01*
X013850Y010750D01*
Y010850D01*
X013950Y010950D01*
X014250D01*
X013950D01*
X013850Y011050D01*
Y011150D01*
X013950Y011250D01*
X014250D01*
X013250Y011150D02*
X013350Y011250D01*
X013550D01*
X013650Y011150D01*
Y010750D01*
X013550Y010650D01*
X013350D01*
X013250Y010750D01*
X012750Y010650D02*
Y011250D01*
X013050Y010950D01*
X012651D01*
X012000Y019500D02*
Y018900D01*
X011700D01*
X011600Y019000D01*
Y019100D01*
X011700Y019200D01*
X012000D01*
X011700D01*
X011600Y019300D01*
Y019400D01*
X011700Y019500D01*
X012000D01*
X011000Y019400D02*
X011100Y019500D01*
X011300D01*
X011400Y019400D01*
Y019000D01*
X011300Y018900D01*
X011100D01*
X011000Y019000D01*
X010401Y018900D02*
X010800D01*
X010401Y019300D01*
Y019400D01*
X010500Y019500D01*
X010700D01*
X010800Y019400D01*
X002000Y019000D02*
Y019600D01*
X002300D01*
X002400Y019500D01*
Y019400D01*
X002300Y019300D01*
X002000D01*
X002300D01*
X002400Y019200D01*
Y019100D01*
X002300Y019000D01*
X002000D01*
X003000Y019100D02*
X002900Y019000D01*
X002700D01*
X002600Y019100D01*
Y019500D01*
X002700Y019600D01*
X002900D01*
X003000Y019500D01*
X003200Y019600D02*
X003400D01*
X003300D01*
Y019000D01*
X003200Y019100D01*
X011750Y004400D02*
Y004800D01*
X011850Y004900D01*
X012050D01*
X012150Y004800D01*
Y004400D01*
X012050Y004300D01*
X011850D01*
X011950Y004500D02*
X011750Y004300D01*
X011850D02*
X011750Y004400D01*
X011150Y004900D02*
X011350Y004800D01*
X011550Y004600D01*
Y004400D01*
X011450Y004300D01*
X011250D01*
X011150Y004400D01*
Y004500D01*
X011250Y004600D01*
X011550D01*
X008450Y005850D02*
Y005450D01*
X008350Y005350D01*
X008150D01*
X008050Y005450D01*
Y005850D01*
X008150Y005950D01*
X008350D01*
X008250Y005750D02*
X008450Y005950D01*
X008350D02*
X008450Y005850D01*
X009050Y005350D02*
X008650D01*
Y005650D01*
X008850Y005550D01*
X008950D01*
X009050Y005650D01*
Y005850D01*
X008950Y005950D01*
X008750D01*
X008650Y005850D01*
X011600Y010500D02*
Y010900D01*
X011700Y011000D01*
X011900D01*
X012000Y010900D01*
Y010500D01*
X011900Y010400D01*
X011700D01*
X011800Y010600D02*
X011600Y010400D01*
X011700D02*
X011600Y010500D01*
X011100Y010400D02*
Y011000D01*
X011400Y010700D01*
X011000D01*
X006850Y005050D02*
Y004650D01*
X006750Y004550D01*
X006550D01*
X006450Y004650D01*
Y005050D01*
X006550Y005150D01*
X006750D01*
X006650Y004950D02*
X006850Y005150D01*
X006750D02*
X006850Y005050D01*
X007050Y004650D02*
X007150Y004550D01*
X007350D01*
X007450Y004650D01*
Y004750D01*
X007350Y004850D01*
X007250D01*
X007350D01*
X007450Y004950D01*
Y005050D01*
X007350Y005150D01*
X007150D01*
X007050Y005050D01*
X006900Y009850D02*
Y009450D01*
X006800Y009350D01*
X006600D01*
X006500Y009450D01*
Y009850D01*
X006600Y009950D01*
X006800D01*
X006700Y009750D02*
X006900Y009950D01*
X006800D02*
X006900Y009850D01*
X007500Y009950D02*
X007100D01*
X007500Y009550D01*
Y009450D01*
X007400Y009350D01*
X007200D01*
X007100Y009450D01*
X006900Y011450D02*
Y011050D01*
X006800Y010950D01*
X006600D01*
X006500Y011050D01*
Y011450D01*
X006600Y011550D01*
X006800D01*
X006700Y011350D02*
X006900Y011550D01*
X006800D02*
X006900Y011450D01*
X007100Y011550D02*
X007300D01*
X007200D01*
Y010950D01*
X007100Y011050D01*
X012650Y005750D02*
Y006350D01*
X012950D01*
X013050Y006250D01*
Y006150D01*
X012950Y006050D01*
X012650D01*
X012950D01*
X013050Y005950D01*
Y005850D01*
X012950Y005750D01*
X012650D01*
X013650Y005850D02*
X013550Y005750D01*
X013350D01*
X013250Y005850D01*
Y006250D01*
X013350Y006350D01*
X013550D01*
X013650Y006250D01*
X014249Y005750D02*
X014050Y005850D01*
X013850Y006050D01*
Y006250D01*
X013950Y006350D01*
X014150D01*
X014249Y006250D01*
Y006150D01*
X014150Y006050D01*
X013850D01*
X012400Y000450D02*
Y001050D01*
X012700D01*
X012800Y000950D01*
Y000850D01*
X012700Y000750D01*
X012400D01*
X012700D01*
X012800Y000650D01*
Y000550D01*
X012700Y000450D01*
X012400D01*
X013400Y000550D02*
X013300Y000450D01*
X013100D01*
X013000Y000550D01*
Y000950D01*
X013100Y001050D01*
X013300D01*
X013400Y000950D01*
X013600Y000550D02*
X013700Y000450D01*
X013900D01*
X013999Y000550D01*
Y000650D01*
X013900Y000750D01*
X013999Y000850D01*
Y000950D01*
X013900Y001050D01*
X013700D01*
X013600Y000950D01*
Y000850D01*
X013700Y000750D01*
X013600Y000650D01*
Y000550D01*
X013700Y000750D02*
X013900D01*
X004750Y016950D02*
X004850Y017050D01*
X005050D01*
X005150Y016950D01*
Y016550D01*
X005050Y016450D01*
X004850D01*
X004750Y016550D01*
X004150Y017050D02*
X004350Y016950D01*
X004550Y016750D01*
Y016550D01*
X004450Y016450D01*
X004250D01*
X004150Y016550D01*
Y016650D01*
X004250Y016750D01*
X004550D01*
D43*
X006721Y015496D02*
X007056D01*
X005402Y015489D02*
X005737D01*
X005402D02*
Y016811D01*
X005737D01*
X007056Y015496D02*
Y016807D01*
X007052Y016811D02*
X007056Y016807D01*
X006721Y016811D02*
X007052D01*
M02*
