G04 Layer_Color=65535*
%FSAX24Y24*%
%MOIN*%
G70*
G01*
G75*
%ADD16C,0.0100*%
%ADD42C,0.0050*%
%ADD43C,0.0060*%
G36*
X005050Y018112D02*
Y018333D01*
X005271D01*
X005050Y018112D01*
D02*
G37*
D16*
X004906Y018351D02*
G03*
X004906Y018351I-000050J000000D01*
G01*
X002750Y001500D02*
G03*
X002750Y001500I-001250J000000D01*
G01*
X014750Y018500D02*
G03*
X014750Y018500I-001250J000000D01*
G01*
X000150Y000150D02*
Y019850D01*
X014850D01*
Y000150D02*
Y019850D01*
X000150Y000150D02*
X014850D01*
X000150Y014550D02*
X003050D01*
Y019850D01*
X000150D02*
X003050D01*
X000150Y014550D02*
Y019850D01*
Y016450D02*
X000650D01*
Y017950D01*
X000150D02*
X000650D01*
X000150Y002900D02*
Y014400D01*
X003050D01*
X000150Y002900D02*
X003050D01*
Y014400D01*
X000150Y010150D02*
X000700D01*
Y007150D02*
Y010150D01*
X000150Y007150D02*
X000700D01*
X006100Y018550D02*
Y019150D01*
X006400D01*
X006500Y019050D01*
Y018850D01*
X006400Y018750D01*
X006100D01*
X006300D02*
X006500Y018550D01*
X006700Y018650D02*
X006800Y018550D01*
X007000D01*
X007100Y018650D01*
Y019050D01*
X007000Y019150D01*
X006800D01*
X006700Y019050D01*
Y018950D01*
X006800Y018850D01*
X007100D01*
X003700Y015250D02*
X003500D01*
X003600D01*
Y014750D01*
X003500Y014650D01*
X003400D01*
X003300Y014750D01*
X004200Y014650D02*
Y015250D01*
X003900Y014950D01*
X004300D01*
X003700Y003000D02*
X003500D01*
X003600D01*
Y002500D01*
X003500Y002400D01*
X003400D01*
X003300Y002500D01*
X003900Y002400D02*
X004100D01*
X004000D01*
Y003000D01*
X003900Y002900D01*
X003505Y018100D02*
Y017600D01*
X003605Y017500D01*
X003805D01*
X003905Y017600D01*
Y018100D01*
X004105Y017500D02*
X004305D01*
X004205D01*
Y018100D01*
X004105Y018000D01*
X008050Y002900D02*
Y003500D01*
X008350D01*
X008450Y003400D01*
Y003200D01*
X008350Y003100D01*
X008050D01*
X008250D02*
X008450Y002900D01*
X009050Y003500D02*
X008850Y003400D01*
X008650Y003200D01*
Y003000D01*
X008750Y002900D01*
X008950D01*
X009050Y003000D01*
Y003100D01*
X008950Y003200D01*
X008650D01*
X009250Y008239D02*
Y008839D01*
X009550D01*
X009650Y008739D01*
Y008539D01*
X009550Y008439D01*
X009250D01*
X009450D02*
X009650Y008239D01*
X010250Y008839D02*
X009850D01*
Y008539D01*
X010050Y008639D01*
X010150D01*
X010250Y008539D01*
Y008339D01*
X010150Y008239D01*
X009950D01*
X009850Y008339D01*
X008150Y012750D02*
Y013350D01*
X008450D01*
X008550Y013250D01*
Y013050D01*
X008450Y012950D01*
X008150D01*
X008350D02*
X008550Y012750D01*
X009050D02*
Y013350D01*
X008750Y013050D01*
X009150D01*
X008050Y005539D02*
Y006139D01*
X008350D01*
X008450Y006039D01*
Y005839D01*
X008350Y005739D01*
X008050D01*
X008250D02*
X008450Y005539D01*
X008650Y006039D02*
X008750Y006139D01*
X008950D01*
X009050Y006039D01*
Y005939D01*
X008950Y005839D01*
X008850D01*
X008950D01*
X009050Y005739D01*
Y005639D01*
X008950Y005539D01*
X008750D01*
X008650Y005639D01*
X005406Y010000D02*
Y010600D01*
X005705D01*
X005805Y010500D01*
Y010300D01*
X005705Y010200D01*
X005406D01*
X005605D02*
X005805Y010000D01*
X006405D02*
X006005D01*
X006405Y010400D01*
Y010500D01*
X006305Y010600D01*
X006105D01*
X006005Y010500D01*
X005000Y012750D02*
Y013350D01*
X005300D01*
X005400Y013250D01*
Y013050D01*
X005300Y012950D01*
X005000D01*
X005200D02*
X005400Y012750D01*
X005600D02*
X005800D01*
X005700D01*
Y013350D01*
X005600Y013250D01*
X006350Y016800D02*
X006250Y016900D01*
X006050D01*
X005950Y016800D01*
Y016400D01*
X006050Y016300D01*
X006250D01*
X006350Y016400D01*
X006550Y016300D02*
X006750D01*
X006650D01*
Y016900D01*
X006550Y016800D01*
X007600Y016200D02*
X007500Y016300D01*
X007300D01*
X007200Y016200D01*
Y015800D01*
X007300Y015700D01*
X007500D01*
X007600Y015800D01*
X008200Y015700D02*
X007800D01*
X008200Y016100D01*
Y016200D01*
X008100Y016300D01*
X007900D01*
X007800Y016200D01*
X007950Y019400D02*
X007850Y019500D01*
X007650D01*
X007550Y019400D01*
Y019000D01*
X007650Y018900D01*
X007850D01*
X007950Y019000D01*
X008150Y019400D02*
X008250Y019500D01*
X008450D01*
X008550Y019400D01*
Y019300D01*
X008450Y019200D01*
X008350D01*
X008450D01*
X008550Y019100D01*
Y019000D01*
X008450Y018900D01*
X008250D01*
X008150Y019000D01*
X008500Y016200D02*
Y016800D01*
X008800D01*
X008900Y016700D01*
Y016500D01*
X008800Y016400D01*
X008500D01*
X008700D02*
X008900Y016200D01*
X009100Y016800D02*
X009500D01*
Y016700D01*
X009100Y016300D01*
Y016200D01*
X009800Y017850D02*
Y018450D01*
X010100D01*
X010200Y018350D01*
Y018150D01*
X010100Y018050D01*
X009800D01*
X010000D02*
X010200Y017850D01*
X010400Y018350D02*
X010500Y018450D01*
X010700D01*
X010800Y018350D01*
Y018250D01*
X010700Y018150D01*
X010800Y018050D01*
Y017950D01*
X010700Y017850D01*
X010500D01*
X010400Y017950D01*
Y018050D01*
X010500Y018150D01*
X010400Y018250D01*
Y018350D01*
X010500Y018150D02*
X010700D01*
X003800Y017000D02*
X003700Y017100D01*
X003500D01*
X003400Y017000D01*
Y016600D01*
X003500Y016500D01*
X003700D01*
X003800Y016600D01*
X004300Y016500D02*
Y017100D01*
X004000Y016800D01*
X004400D01*
X011150Y019350D02*
X011050Y019450D01*
X010850D01*
X010750Y019350D01*
Y018950D01*
X010850Y018850D01*
X011050D01*
X011150Y018950D01*
X011750Y019450D02*
X011350D01*
Y019150D01*
X011550Y019250D01*
X011650D01*
X011750Y019150D01*
Y018950D01*
X011650Y018850D01*
X011450D01*
X011350Y018950D01*
X002210Y018954D02*
Y019554D01*
X002510D01*
X002610Y019454D01*
Y019254D01*
X002510Y019154D01*
X002210D01*
X002410D02*
X002610Y018954D01*
X002810D02*
X003010D01*
X002910D01*
Y019554D01*
X002810Y019454D01*
X003310D02*
X003410Y019554D01*
X003609D01*
X003709Y019454D01*
Y019054D01*
X003609Y018954D01*
X003410D01*
X003310Y019054D01*
Y019454D01*
D42*
X005050Y018333D02*
X005450D01*
X005450Y017270D01*
X005050D02*
X005450D01*
X005050D02*
X005050Y018333D01*
D43*
X007365Y016608D02*
Y016903D01*
Y016608D02*
X008035D01*
Y016903D01*
Y017297D02*
Y017592D01*
X007365D02*
X008035D01*
X007365Y017297D02*
Y017592D01*
X008035Y018447D02*
Y018742D01*
X007365D02*
X008035D01*
X007365Y018447D02*
Y018742D01*
Y017758D02*
Y018053D01*
Y017758D02*
X008035D01*
Y018053D01*
X004603Y016426D02*
Y016603D01*
Y016426D02*
X004997D01*
Y016603D01*
Y016997D02*
Y017174D01*
X004603D02*
X004997D01*
X004603Y016997D02*
Y017174D01*
X006735Y017872D02*
Y018167D01*
X006065D02*
X006735D01*
X006065Y017872D02*
Y018167D01*
Y017183D02*
Y017478D01*
Y017183D02*
X006735D01*
Y017478D01*
X003776Y018703D02*
X003953D01*
X003776D02*
Y019097D01*
X003953D01*
X004347D02*
X004524D01*
Y018703D02*
Y019097D01*
X004347Y018703D02*
X004524D01*
X005650Y019097D02*
X005827D01*
Y018703D02*
Y019097D01*
X005650Y018703D02*
X005827D01*
X005079D02*
X005256D01*
X005079D02*
Y019097D01*
X005256D01*
X009147Y018197D02*
X009324D01*
Y017803D02*
Y018197D01*
X009147Y017803D02*
X009324D01*
X008576D02*
X008753D01*
X008576D02*
Y018197D01*
X008753D01*
X009147Y017547D02*
X009324D01*
Y017153D02*
Y017547D01*
X009147Y017153D02*
X009324D01*
X008576D02*
X008753D01*
X008576D02*
Y017547D01*
X008753D01*
X005631Y013587D02*
X005946D01*
X005631Y014413D02*
X005946D01*
X004765D02*
X005060D01*
X004765Y013587D02*
X005080D01*
X005946D02*
Y014413D01*
X004765Y013587D02*
Y014413D01*
X006181Y008737D02*
X006496D01*
X006181Y009563D02*
X006496D01*
X005315D02*
X005610D01*
X005315Y008737D02*
X005630D01*
X006496D02*
Y009563D01*
X005315Y008737D02*
Y009563D01*
X006937Y005204D02*
Y005519D01*
X007763Y005204D02*
Y005519D01*
Y006090D02*
Y006385D01*
X006937Y006070D02*
Y006385D01*
Y005204D02*
X007763D01*
X006937Y006385D02*
X007763D01*
X007913Y013281D02*
Y013596D01*
X007087Y013281D02*
Y013596D01*
Y012415D02*
Y012710D01*
X007913Y012415D02*
Y012730D01*
X007087Y013596D02*
X007913D01*
X007087Y012415D02*
X007913D01*
X009013Y008770D02*
Y009085D01*
X008187Y008770D02*
Y009085D01*
Y007904D02*
Y008199D01*
X009013Y007904D02*
Y008219D01*
X008187Y009085D02*
X009013D01*
X008187Y007904D02*
X009013D01*
X006787Y002565D02*
Y002880D01*
X007613Y002565D02*
Y002880D01*
Y003451D02*
Y003746D01*
X006787Y003431D02*
Y003746D01*
Y002565D02*
X007613D01*
X006787Y003746D02*
X007613D01*
M02*
