G04 Layer_Color=65535*
%FSLAX24Y24*%
%MOIN*%
G70*
G01*
G75*
%ADD29C,0.0236*%
%ADD30C,0.0098*%
%ADD31C,0.0060*%
%ADD32C,0.0079*%
%ADD33C,0.0050*%
%ADD34C,0.0100*%
D29*
X12749Y22919D02*
G03*
X12749Y22919I-118J0D01*
G01*
D30*
X11775Y23500D02*
G03*
X11775Y23500I-49J0D01*
G01*
D31*
X116547Y28526D02*
Y28703D01*
X116153Y28526D02*
X116547D01*
X116153D02*
Y28703D01*
Y29097D02*
Y29274D01*
X116547D01*
Y29097D02*
Y29274D01*
X114347Y28526D02*
Y28703D01*
X113953Y28526D02*
X114347D01*
X113953D02*
Y28703D01*
Y29097D02*
Y29274D01*
X114347D01*
Y29097D02*
Y29274D01*
X104597Y28526D02*
Y28703D01*
X104203Y28526D02*
X104597D01*
X104203D02*
Y28703D01*
Y29097D02*
Y29274D01*
X104597D01*
Y29097D02*
Y29274D01*
X100897Y28526D02*
Y28703D01*
X100503Y28526D02*
X100897D01*
X100503D02*
Y28703D01*
Y29097D02*
Y29274D01*
X100897D01*
Y29097D02*
Y29274D01*
X10364Y15365D02*
X10659D01*
X10364D02*
Y16035D01*
X10659D01*
X11053D02*
X11348D01*
Y15365D02*
Y16035D01*
X11053Y15365D02*
X11348D01*
X13514Y15515D02*
X13809D01*
X13514D02*
Y16185D01*
X13809D01*
X14203D02*
X14498D01*
Y15515D02*
Y16185D01*
X14203Y15515D02*
X14498D01*
X18779Y23503D02*
X18956D01*
X18779D02*
Y23897D01*
X18956D01*
X19350D02*
X19527D01*
Y23503D02*
Y23897D01*
X19350Y23503D02*
X19527D01*
X18479Y21853D02*
X18656D01*
X18479D02*
Y22247D01*
X18656D01*
X19050D02*
X19227D01*
Y21853D02*
Y22247D01*
X19050Y21853D02*
X19227D01*
X106426Y28903D02*
X106603D01*
X106426D02*
Y29297D01*
X106603D01*
X106997D02*
X107174D01*
Y28903D02*
Y29297D01*
X106997Y28903D02*
X107174D01*
X102526D02*
X102703D01*
X102526D02*
Y29297D01*
X102703D01*
X103097D02*
X103274D01*
Y28903D02*
Y29297D01*
X103097Y28903D02*
X103274D01*
X98897Y28526D02*
Y28703D01*
X98503Y28526D02*
X98897D01*
X98503D02*
Y28703D01*
Y29097D02*
Y29274D01*
X98897D01*
Y29097D02*
Y29274D01*
X93197Y28526D02*
Y28703D01*
X92803Y28526D02*
X93197D01*
X92803D02*
Y28703D01*
Y29097D02*
Y29274D01*
X93197D01*
Y29097D02*
Y29274D01*
X90997Y28526D02*
Y28703D01*
X90603Y28526D02*
X90997D01*
X90603D02*
Y28703D01*
Y29097D02*
Y29274D01*
X90997D01*
Y29097D02*
Y29274D01*
X88797Y28526D02*
Y28703D01*
X88403Y28526D02*
X88797D01*
X88403D02*
Y28703D01*
Y29097D02*
Y29274D01*
X88797D01*
Y29097D02*
Y29274D01*
X55797Y28526D02*
Y28703D01*
X55403Y28526D02*
X55797D01*
X55403D02*
Y28703D01*
Y29097D02*
Y29274D01*
X55797D01*
Y29097D02*
Y29274D01*
X53597Y28526D02*
Y28703D01*
X53203Y28526D02*
X53597D01*
X53203D02*
Y28703D01*
Y29097D02*
Y29274D01*
X53597D01*
Y29097D02*
Y29274D01*
X22447Y21373D02*
Y21550D01*
X22053Y21373D02*
X22447D01*
X22053D02*
Y21550D01*
Y21944D02*
Y22121D01*
X22447D01*
Y21944D02*
Y22121D01*
X20147Y17673D02*
Y17850D01*
X19753Y17673D02*
X20147D01*
X19753D02*
Y17850D01*
Y18244D02*
Y18421D01*
X20147D01*
Y18244D02*
Y18421D01*
X17847Y16676D02*
Y16853D01*
X17453Y16676D02*
X17847D01*
X17453D02*
Y16853D01*
Y17247D02*
Y17424D01*
X17847D01*
Y17247D02*
Y17424D01*
X16197Y17423D02*
Y17600D01*
X15803Y17423D02*
X16197D01*
X15803D02*
Y17600D01*
Y17994D02*
Y18171D01*
X16197D01*
Y17994D02*
Y18171D01*
X77997Y28526D02*
Y28703D01*
X77603Y28526D02*
X77997D01*
X77603D02*
Y28703D01*
Y29097D02*
Y29274D01*
X77997D01*
Y29097D02*
Y29274D01*
X72797Y28526D02*
Y28703D01*
X72403Y28526D02*
X72797D01*
X72403D02*
Y28703D01*
Y29097D02*
Y29274D01*
X72797D01*
Y29097D02*
Y29274D01*
X67597Y28526D02*
Y28703D01*
X67203Y28526D02*
X67597D01*
X67203D02*
Y28703D01*
Y29097D02*
Y29274D01*
X67597D01*
Y29097D02*
Y29274D01*
X62597Y28526D02*
Y28703D01*
X62203Y28526D02*
X62597D01*
X62203D02*
Y28703D01*
Y29097D02*
Y29274D01*
X62597D01*
Y29097D02*
Y29274D01*
X60297Y28526D02*
Y28703D01*
X59903Y28526D02*
X60297D01*
X59903D02*
Y28703D01*
Y29097D02*
Y29274D01*
X60297D01*
Y29097D02*
Y29274D01*
X57997Y28526D02*
Y28703D01*
X57603Y28526D02*
X57997D01*
X57603D02*
Y28703D01*
Y29097D02*
Y29274D01*
X57997D01*
Y29097D02*
Y29274D01*
D32*
X12237Y19887D02*
X15663D01*
X12237Y23313D02*
X15663D01*
Y19887D02*
Y23313D01*
X12237Y19887D02*
Y23313D01*
D33*
X85860Y29230D02*
X86340D01*
X86450Y28875D02*
Y29120D01*
X85750Y27775D02*
X86450D01*
Y28175D01*
X85750Y28875D02*
Y29120D01*
Y27775D02*
Y28175D01*
Y29120D02*
X85900Y29270D01*
X86300D01*
X86450Y29120D01*
X82960Y29230D02*
X83440D01*
X83550Y28875D02*
Y29120D01*
X82850Y27775D02*
X83550D01*
Y28175D01*
X82850Y28875D02*
Y29120D01*
Y27775D02*
Y28175D01*
Y29120D02*
X83000Y29270D01*
X83400D01*
X83550Y29120D01*
X80060Y29230D02*
X80540D01*
X80650Y28875D02*
Y29120D01*
X79950Y27775D02*
X80650D01*
Y28175D01*
X79950Y28875D02*
Y29120D01*
Y27775D02*
Y28175D01*
Y29120D02*
X80100Y29270D01*
X80500D01*
X80650Y29120D01*
X74860Y29230D02*
X75340D01*
X75450Y28875D02*
Y29120D01*
X74750Y27775D02*
X75450D01*
Y28175D01*
X74750Y28875D02*
Y29120D01*
Y27775D02*
Y28175D01*
Y29120D02*
X74900Y29270D01*
X75300D01*
X75450Y29120D01*
X69660Y29230D02*
X70140D01*
X70250Y28875D02*
Y29120D01*
X69550Y27775D02*
X70250D01*
Y28175D01*
X69550Y28875D02*
Y29120D01*
Y27775D02*
Y28175D01*
Y29120D02*
X69700Y29270D01*
X70100D01*
X70250Y29120D01*
X64460Y29230D02*
X64940D01*
X65050Y28875D02*
Y29120D01*
X64350Y27775D02*
X65050D01*
Y28175D01*
X64350Y28875D02*
Y29120D01*
Y27775D02*
Y28175D01*
Y29120D02*
X64500Y29270D01*
X64900D01*
X65050Y29120D01*
D34*
X7350Y25700D02*
X13800D01*
X7350D02*
Y30000D01*
X13800D01*
Y25700D02*
Y30000D01*
X26650Y24400D02*
X29550D01*
Y29700D01*
X26650D02*
X29550D01*
X26650Y24400D02*
Y29700D01*
Y26300D02*
X27150D01*
Y27800D01*
X26650D02*
X27150D01*
X18100Y10550D02*
Y13450D01*
Y10550D02*
X23400D01*
Y13450D01*
X18100D02*
X23400D01*
X20000Y12950D02*
Y13450D01*
Y12950D02*
X21500D01*
Y13450D01*
X10950Y10500D02*
Y13400D01*
Y10500D02*
X16250D01*
Y13400D01*
X10950D02*
X16250D01*
X12850Y12900D02*
Y13400D01*
Y12900D02*
X14350D01*
Y13400D01*
X26600Y12600D02*
Y24100D01*
X29500D01*
X26600Y12600D02*
X29500D01*
Y24100D01*
X26600Y19850D02*
X27150D01*
Y16850D02*
Y19850D01*
X26600Y16850D02*
X27150D01*
X14519Y29950D02*
X14319D01*
X14419D01*
Y29450D01*
X14319Y29350D01*
X14219D01*
X14119Y29450D01*
X15019Y29350D02*
Y29950D01*
X14719Y29650D01*
X15119D01*
X11375Y25175D02*
Y24675D01*
X11475Y24575D01*
X11675D01*
X11775Y24675D01*
Y25175D01*
X12275Y24575D02*
Y25175D01*
X11975Y24875D01*
X12375D01*
X10651Y18907D02*
X11051D01*
X10851D01*
Y18307D01*
X11251D02*
X11451D01*
X11351D01*
Y18907D01*
X11251Y18807D01*
X19260Y29670D02*
X19160Y29770D01*
X18960D01*
X18860Y29670D01*
Y29570D01*
X18960Y29470D01*
X19160D01*
X19260Y29370D01*
Y29270D01*
X19160Y29170D01*
X18960D01*
X18860Y29270D01*
X19460Y29170D02*
X19660D01*
X19560D01*
Y29770D01*
X19460Y29670D01*
X57675Y29605D02*
Y30205D01*
X57975D01*
X58075Y30105D01*
Y29905D01*
X57975Y29805D01*
X57675D01*
X57875D02*
X58075Y29605D01*
X58275Y30105D02*
X58375Y30205D01*
X58575D01*
X58675Y30105D01*
Y30005D01*
X58575Y29905D01*
X58475D01*
X58575D01*
X58675Y29805D01*
Y29705D01*
X58575Y29605D01*
X58375D01*
X58275Y29705D01*
X58875Y30105D02*
X58975Y30205D01*
X59175D01*
X59274Y30105D01*
Y30005D01*
X59175Y29905D01*
X59075D01*
X59175D01*
X59274Y29805D01*
Y29705D01*
X59175Y29605D01*
X58975D01*
X58875Y29705D01*
X59975Y29605D02*
Y30205D01*
X60275D01*
X60375Y30105D01*
Y29905D01*
X60275Y29805D01*
X59975D01*
X60175D02*
X60375Y29605D01*
X60575Y30105D02*
X60675Y30205D01*
X60875D01*
X60975Y30105D01*
Y30005D01*
X60875Y29905D01*
X60775D01*
X60875D01*
X60975Y29805D01*
Y29705D01*
X60875Y29605D01*
X60675D01*
X60575Y29705D01*
X61574Y29605D02*
X61175D01*
X61574Y30005D01*
Y30105D01*
X61475Y30205D01*
X61275D01*
X61175Y30105D01*
X62275Y29605D02*
Y30205D01*
X62575D01*
X62675Y30105D01*
Y29905D01*
X62575Y29805D01*
X62275D01*
X62475D02*
X62675Y29605D01*
X62875Y30105D02*
X62975Y30205D01*
X63175D01*
X63275Y30105D01*
Y30005D01*
X63175Y29905D01*
X63075D01*
X63175D01*
X63275Y29805D01*
Y29705D01*
X63175Y29605D01*
X62975D01*
X62875Y29705D01*
X63475Y29605D02*
X63675D01*
X63575D01*
Y30205D01*
X63475Y30105D01*
X67275Y29605D02*
Y30205D01*
X67575D01*
X67675Y30105D01*
Y29905D01*
X67575Y29805D01*
X67275D01*
X67475D02*
X67675Y29605D01*
X67875Y30105D02*
X67975Y30205D01*
X68175D01*
X68275Y30105D01*
Y30005D01*
X68175Y29905D01*
X68075D01*
X68175D01*
X68275Y29805D01*
Y29705D01*
X68175Y29605D01*
X67975D01*
X67875Y29705D01*
X68475Y30105D02*
X68575Y30205D01*
X68775D01*
X68874Y30105D01*
Y29705D01*
X68775Y29605D01*
X68575D01*
X68475Y29705D01*
Y30105D01*
X72475Y29605D02*
Y30205D01*
X72775D01*
X72875Y30105D01*
Y29905D01*
X72775Y29805D01*
X72475D01*
X72675D02*
X72875Y29605D01*
X73475D02*
X73075D01*
X73475Y30005D01*
Y30105D01*
X73375Y30205D01*
X73175D01*
X73075Y30105D01*
X73675Y29705D02*
X73775Y29605D01*
X73975D01*
X74074Y29705D01*
Y30105D01*
X73975Y30205D01*
X73775D01*
X73675Y30105D01*
Y30005D01*
X73775Y29905D01*
X74074D01*
X77675Y29605D02*
Y30205D01*
X77975D01*
X78075Y30105D01*
Y29905D01*
X77975Y29805D01*
X77675D01*
X77875D02*
X78075Y29605D01*
X78675D02*
X78275D01*
X78675Y30005D01*
Y30105D01*
X78575Y30205D01*
X78375D01*
X78275Y30105D01*
X78875D02*
X78975Y30205D01*
X79175D01*
X79274Y30105D01*
Y30005D01*
X79175Y29905D01*
X79274Y29805D01*
Y29705D01*
X79175Y29605D01*
X78975D01*
X78875Y29705D01*
Y29805D01*
X78975Y29905D01*
X78875Y30005D01*
Y30105D01*
X78975Y29905D02*
X79175D01*
X15875Y18502D02*
Y19102D01*
X16175D01*
X16275Y19002D01*
Y18802D01*
X16175Y18702D01*
X15875D01*
X16075D02*
X16275Y18502D01*
X16875D02*
X16475D01*
X16875Y18902D01*
Y19002D01*
X16775Y19102D01*
X16575D01*
X16475Y19002D01*
X17474Y19102D02*
X17275Y19002D01*
X17075Y18802D01*
Y18602D01*
X17175Y18502D01*
X17375D01*
X17474Y18602D01*
Y18702D01*
X17375Y18802D01*
X17075D01*
X17525Y17755D02*
Y18355D01*
X17825D01*
X17925Y18255D01*
Y18055D01*
X17825Y17955D01*
X17525D01*
X17725D02*
X17925Y17755D01*
X18525D02*
X18125D01*
X18525Y18155D01*
Y18255D01*
X18425Y18355D01*
X18225D01*
X18125Y18255D01*
X19124Y18355D02*
X18725D01*
Y18055D01*
X18925Y18155D01*
X19025D01*
X19124Y18055D01*
Y17855D01*
X19025Y17755D01*
X18825D01*
X18725Y17855D01*
X19825Y18752D02*
Y19352D01*
X20125D01*
X20225Y19252D01*
Y19052D01*
X20125Y18952D01*
X19825D01*
X20025D02*
X20225Y18752D01*
X20825D02*
X20425D01*
X20825Y19152D01*
Y19252D01*
X20725Y19352D01*
X20525D01*
X20425Y19252D01*
X21325Y18752D02*
Y19352D01*
X21025Y19052D01*
X21424D01*
X22125Y22452D02*
Y23052D01*
X22425D01*
X22525Y22952D01*
Y22752D01*
X22425Y22652D01*
X22125D01*
X22325D02*
X22525Y22452D01*
X22725D02*
X22925D01*
X22825D01*
Y23052D01*
X22725Y22952D01*
X23225D02*
X23325Y23052D01*
X23525D01*
X23625Y22952D01*
Y22852D01*
X23525Y22752D01*
X23625Y22652D01*
Y22552D01*
X23525Y22452D01*
X23325D01*
X23225Y22552D01*
Y22652D01*
X23325Y22752D01*
X23225Y22852D01*
Y22952D01*
X23325Y22752D02*
X23525D01*
X53275Y29605D02*
Y30205D01*
X53575D01*
X53675Y30105D01*
Y29905D01*
X53575Y29805D01*
X53275D01*
X53475D02*
X53675Y29605D01*
X53875D02*
X54075D01*
X53975D01*
Y30205D01*
X53875Y30105D01*
X54375Y30205D02*
X54775D01*
Y30105D01*
X54375Y29705D01*
Y29605D01*
X55475D02*
Y30205D01*
X55775D01*
X55875Y30105D01*
Y29905D01*
X55775Y29805D01*
X55475D01*
X55675D02*
X55875Y29605D01*
X56075D02*
X56275D01*
X56175D01*
Y30205D01*
X56075Y30105D01*
X56975Y30205D02*
X56775Y30105D01*
X56575Y29905D01*
Y29705D01*
X56675Y29605D01*
X56875D01*
X56975Y29705D01*
Y29805D01*
X56875Y29905D01*
X56575D01*
X88475Y29605D02*
Y30205D01*
X88775D01*
X88875Y30105D01*
Y29905D01*
X88775Y29805D01*
X88475D01*
X88675D02*
X88875Y29605D01*
X89075D02*
X89275D01*
X89175D01*
Y30205D01*
X89075Y30105D01*
X89975Y30205D02*
X89575D01*
Y29905D01*
X89775Y30005D01*
X89875D01*
X89975Y29905D01*
Y29705D01*
X89875Y29605D01*
X89675D01*
X89575Y29705D01*
X90675Y29605D02*
Y30205D01*
X90975D01*
X91075Y30105D01*
Y29905D01*
X90975Y29805D01*
X90675D01*
X90875D02*
X91075Y29605D01*
X91275D02*
X91475D01*
X91375D01*
Y30205D01*
X91275Y30105D01*
X92075Y29605D02*
Y30205D01*
X91775Y29905D01*
X92175D01*
X92875Y29605D02*
Y30205D01*
X93175D01*
X93275Y30105D01*
Y29905D01*
X93175Y29805D01*
X92875D01*
X93075D02*
X93275Y29605D01*
X93475D02*
X93675D01*
X93575D01*
Y30205D01*
X93475Y30105D01*
X93975D02*
X94075Y30205D01*
X94275D01*
X94375Y30105D01*
Y30005D01*
X94275Y29905D01*
X94175D01*
X94275D01*
X94375Y29805D01*
Y29705D01*
X94275Y29605D01*
X94075D01*
X93975Y29705D01*
X98575Y29605D02*
Y30205D01*
X98875D01*
X98975Y30105D01*
Y29905D01*
X98875Y29805D01*
X98575D01*
X98775D02*
X98975Y29605D01*
X99175D02*
X99375D01*
X99275D01*
Y30205D01*
X99175Y30105D01*
X99675Y29605D02*
X99875D01*
X99775D01*
Y30205D01*
X99675Y30105D01*
X102595Y29625D02*
Y30225D01*
X102895D01*
X102995Y30125D01*
Y29925D01*
X102895Y29825D01*
X102595D01*
X102795D02*
X102995Y29625D01*
X103195Y30125D02*
X103295Y30225D01*
X103495D01*
X103595Y30125D01*
Y30025D01*
X103495Y29925D01*
X103595Y29825D01*
Y29725D01*
X103495Y29625D01*
X103295D01*
X103195Y29725D01*
Y29825D01*
X103295Y29925D01*
X103195Y30025D01*
Y30125D01*
X103295Y29925D02*
X103495D01*
X106495Y29625D02*
Y30225D01*
X106795D01*
X106895Y30125D01*
Y29925D01*
X106795Y29825D01*
X106495D01*
X106695D02*
X106895Y29625D01*
X107095Y30225D02*
X107495D01*
Y30125D01*
X107095Y29725D01*
Y29625D01*
X18548Y22575D02*
Y23175D01*
X18848D01*
X18948Y23075D01*
Y22875D01*
X18848Y22775D01*
X18548D01*
X18748D02*
X18948Y22575D01*
X19548D02*
X19148D01*
X19548Y22975D01*
Y23075D01*
X19448Y23175D01*
X19248D01*
X19148Y23075D01*
X18848Y24225D02*
Y24825D01*
X19148D01*
X19248Y24725D01*
Y24525D01*
X19148Y24425D01*
X18848D01*
X19048D02*
X19248Y24225D01*
X19448D02*
X19648D01*
X19548D01*
Y24825D01*
X19448Y24725D01*
X64385Y30245D02*
Y29645D01*
X64785D01*
X65385Y30245D02*
X64985D01*
Y29645D01*
X65385D01*
X64985Y29945D02*
X65185D01*
X65585Y30245D02*
Y29645D01*
X65885D01*
X65984Y29745D01*
Y30145D01*
X65885Y30245D01*
X65585D01*
X66584D02*
X66384Y30145D01*
X66184Y29945D01*
Y29745D01*
X66284Y29645D01*
X66484D01*
X66584Y29745D01*
Y29845D01*
X66484Y29945D01*
X66184D01*
X69585Y30245D02*
Y29645D01*
X69985D01*
X70585Y30245D02*
X70185D01*
Y29645D01*
X70585D01*
X70185Y29945D02*
X70385D01*
X70785Y30245D02*
Y29645D01*
X71085D01*
X71184Y29745D01*
Y30145D01*
X71085Y30245D01*
X70785D01*
X71784D02*
X71384D01*
Y29945D01*
X71584Y30045D01*
X71684D01*
X71784Y29945D01*
Y29745D01*
X71684Y29645D01*
X71484D01*
X71384Y29745D01*
X74785Y30245D02*
Y29645D01*
X75185D01*
X75785Y30245D02*
X75385D01*
Y29645D01*
X75785D01*
X75385Y29945D02*
X75585D01*
X75985Y30245D02*
Y29645D01*
X76285D01*
X76384Y29745D01*
Y30145D01*
X76285Y30245D01*
X75985D01*
X76884Y29645D02*
Y30245D01*
X76584Y29945D01*
X76984D01*
X79985Y30245D02*
Y29645D01*
X80385D01*
X80985Y30245D02*
X80585D01*
Y29645D01*
X80985D01*
X80585Y29945D02*
X80785D01*
X81185Y30245D02*
Y29645D01*
X81485D01*
X81584Y29745D01*
Y30145D01*
X81485Y30245D01*
X81185D01*
X81784Y30145D02*
X81884Y30245D01*
X82084D01*
X82184Y30145D01*
Y30045D01*
X82084Y29945D01*
X81984D01*
X82084D01*
X82184Y29845D01*
Y29745D01*
X82084Y29645D01*
X81884D01*
X81784Y29745D01*
X82885Y30245D02*
Y29645D01*
X83285D01*
X83885Y30245D02*
X83485D01*
Y29645D01*
X83885D01*
X83485Y29945D02*
X83685D01*
X84085Y30245D02*
Y29645D01*
X84385D01*
X84484Y29745D01*
Y30145D01*
X84385Y30245D01*
X84085D01*
X85084Y29645D02*
X84684D01*
X85084Y30045D01*
Y30145D01*
X84984Y30245D01*
X84784D01*
X84684Y30145D01*
X85785Y30245D02*
Y29645D01*
X86185D01*
X86785Y30245D02*
X86385D01*
Y29645D01*
X86785D01*
X86385Y29945D02*
X86585D01*
X86985Y30245D02*
Y29645D01*
X87285D01*
X87384Y29745D01*
Y30145D01*
X87285Y30245D01*
X86985D01*
X87584Y29645D02*
X87784D01*
X87684D01*
Y30245D01*
X87584Y30145D01*
X11400Y14350D02*
X11200D01*
X11300D01*
Y13850D01*
X11200Y13750D01*
X11100D01*
X11000Y13850D01*
X12000Y14350D02*
X11600D01*
Y14050D01*
X11800Y14150D01*
X11900D01*
X12000Y14050D01*
Y13850D01*
X11900Y13750D01*
X11700D01*
X11600Y13850D01*
X18550Y14400D02*
X18350D01*
X18450D01*
Y13900D01*
X18350Y13800D01*
X18250D01*
X18150Y13900D01*
X18750Y14300D02*
X18850Y14400D01*
X19050D01*
X19150Y14300D01*
Y14200D01*
X19050Y14100D01*
X18950D01*
X19050D01*
X19150Y14000D01*
Y13900D01*
X19050Y13800D01*
X18850D01*
X18750Y13900D01*
X27095Y30655D02*
X26895D01*
X26995D01*
Y30155D01*
X26895Y30055D01*
X26795D01*
X26695Y30155D01*
X27695Y30055D02*
X27295D01*
X27695Y30455D01*
Y30555D01*
X27595Y30655D01*
X27395D01*
X27295Y30555D01*
X27045Y25055D02*
X26845D01*
X26945D01*
Y24555D01*
X26845Y24455D01*
X26745D01*
X26645Y24555D01*
X27245Y24455D02*
X27445D01*
X27345D01*
Y25055D01*
X27245Y24955D01*
X116625Y30105D02*
X116525Y30205D01*
X116325D01*
X116225Y30105D01*
Y29705D01*
X116325Y29605D01*
X116525D01*
X116625Y29705D01*
X116825Y29605D02*
X117025D01*
X116925D01*
Y30205D01*
X116825Y30105D01*
X117725Y30205D02*
X117325D01*
Y29905D01*
X117525Y30005D01*
X117625D01*
X117725Y29905D01*
Y29705D01*
X117625Y29605D01*
X117425D01*
X117325Y29705D01*
X114425Y30105D02*
X114325Y30205D01*
X114125D01*
X114025Y30105D01*
Y29705D01*
X114125Y29605D01*
X114325D01*
X114425Y29705D01*
X114625Y29605D02*
X114825D01*
X114725D01*
Y30205D01*
X114625Y30105D01*
X115425Y29605D02*
Y30205D01*
X115125Y29905D01*
X115525D01*
X13981Y17015D02*
X13881Y17115D01*
X13681D01*
X13581Y17015D01*
Y16615D01*
X13681Y16515D01*
X13881D01*
X13981Y16615D01*
X14181Y16515D02*
X14381D01*
X14281D01*
Y17115D01*
X14181Y17015D01*
X14681D02*
X14781Y17115D01*
X14980D01*
X15080Y17015D01*
Y16915D01*
X14980Y16815D01*
X14880D01*
X14980D01*
X15080Y16715D01*
Y16615D01*
X14980Y16515D01*
X14781D01*
X14681Y16615D01*
X10831Y16865D02*
X10731Y16965D01*
X10531D01*
X10431Y16865D01*
Y16465D01*
X10531Y16365D01*
X10731D01*
X10831Y16465D01*
X11031Y16365D02*
X11231D01*
X11131D01*
Y16965D01*
X11031Y16865D01*
X11930Y16365D02*
X11531D01*
X11930Y16765D01*
Y16865D01*
X11830Y16965D01*
X11631D01*
X11531Y16865D01*
X100975Y30105D02*
X100875Y30205D01*
X100675D01*
X100575Y30105D01*
Y29705D01*
X100675Y29605D01*
X100875D01*
X100975Y29705D01*
X101175Y29605D02*
X101375D01*
X101275D01*
Y30205D01*
X101175Y30105D01*
X101675Y29605D02*
X101875D01*
X101775D01*
Y30205D01*
X101675Y30105D01*
X104675D02*
X104575Y30205D01*
X104375D01*
X104275Y30105D01*
Y29705D01*
X104375Y29605D01*
X104575D01*
X104675Y29705D01*
X104875Y29605D02*
X105075D01*
X104975D01*
Y30205D01*
X104875Y30105D01*
X105375D02*
X105475Y30205D01*
X105675D01*
X105775Y30105D01*
Y29705D01*
X105675Y29605D01*
X105475D01*
X105375Y29705D01*
Y30105D01*
M02*
