G04 Layer_Color=32896*
%FSLAX24Y24*%
%MOIN*%
G70*
G01*
G75*
%ADD30C,0.0098*%
%ADD32C,0.0079*%
%ADD33C,0.0050*%
%ADD34C,0.0100*%
%ADD54C,0.0080*%
D30*
X18974Y26900D02*
G03*
X18974Y26900I-49J0D01*
G01*
D32*
X25090Y25658D02*
Y26623D01*
X26310Y25658D02*
Y26623D01*
Y23690D02*
Y24713D01*
X25090Y23690D02*
Y24713D01*
X25267Y26800D02*
X26133D01*
X26310Y26623D01*
X25090D02*
X25267Y26800D01*
X25090Y23690D02*
X26310D01*
X22590Y17008D02*
Y17973D01*
X23810Y17008D02*
Y17973D01*
Y15040D02*
Y16063D01*
X22590Y15040D02*
Y16063D01*
X22767Y18150D02*
X23633D01*
X23810Y17973D01*
X22590D02*
X22767Y18150D01*
X22590Y15040D02*
X23810D01*
X19540Y21208D02*
Y22173D01*
X20760Y21208D02*
Y22173D01*
Y19240D02*
Y20263D01*
X19540Y19240D02*
Y20263D01*
X19717Y22350D02*
X20583D01*
X20760Y22173D01*
X19540D02*
X19717Y22350D01*
X19540Y19240D02*
X20760D01*
D33*
X19259Y26422D02*
X21622D01*
X19259Y29178D02*
X21622D01*
X18787Y26698D02*
X19259D01*
Y27091D01*
X18787D02*
X19259D01*
X18944Y27603D02*
Y27997D01*
X19259D01*
Y27603D02*
Y27997D01*
X18944Y27603D02*
X19259D01*
X18787Y28902D02*
X19259D01*
Y28509D02*
Y28902D01*
X18787Y28509D02*
X19259D01*
Y26422D02*
Y29178D01*
X21622Y28981D02*
Y29178D01*
Y26422D02*
Y26619D01*
D34*
X22463Y30210D02*
Y29710D01*
X22363Y29610D01*
X22163D01*
X22063Y29710D01*
Y30210D01*
X21464D02*
X21864D01*
Y29910D01*
X21664Y30010D01*
X21564D01*
X21464Y29910D01*
Y29710D01*
X21564Y29610D01*
X21764D01*
X21864Y29710D01*
X22890Y24115D02*
Y23615D01*
X22790Y23515D01*
X22590D01*
X22490Y23615D01*
Y24115D01*
X22290Y24015D02*
X22190Y24115D01*
X21990D01*
X21890Y24015D01*
Y23915D01*
X21990Y23815D01*
X22090D01*
X21990D01*
X21890Y23715D01*
Y23615D01*
X21990Y23515D01*
X22190D01*
X22290Y23615D01*
X25590Y19515D02*
Y19015D01*
X25490Y18915D01*
X25290D01*
X25190Y19015D01*
Y19515D01*
X24590Y18915D02*
X24990D01*
X24590Y19315D01*
Y19415D01*
X24690Y19515D01*
X24890D01*
X24990Y19415D01*
X19040Y24990D02*
Y24490D01*
X18940Y24390D01*
X18740D01*
X18640Y24490D01*
Y24990D01*
X18440Y24390D02*
X18240D01*
X18340D01*
Y24990D01*
X18440Y24890D01*
X20700Y23286D02*
Y22686D01*
X20400D01*
X20300Y22786D01*
Y23186D01*
X20400Y23286D01*
X20700D01*
X20100Y23186D02*
X20000Y23286D01*
X19800D01*
X19700Y23186D01*
Y23086D01*
X19800Y22986D01*
X19900D01*
X19800D01*
X19700Y22886D01*
Y22786D01*
X19800Y22686D01*
X20000D01*
X20100Y22786D01*
X23750Y19086D02*
Y18486D01*
X23450D01*
X23350Y18586D01*
Y18986D01*
X23450Y19086D01*
X23750D01*
X22750Y18486D02*
X23150D01*
X22750Y18886D01*
Y18986D01*
X22850Y19086D01*
X23050D01*
X23150Y18986D01*
X26250Y27736D02*
Y27136D01*
X25950D01*
X25850Y27236D01*
Y27636D01*
X25950Y27736D01*
X26250D01*
X25650Y27136D02*
X25450D01*
X25550D01*
Y27736D01*
X25650Y27636D01*
X20440Y18940D02*
X20540Y19040D01*
X20740D01*
X20840Y18940D01*
Y18540D01*
X20740Y18440D01*
X20540D01*
X20440Y18540D01*
X19840Y19040D02*
X20040Y18940D01*
X20240Y18740D01*
Y18540D01*
X20140Y18440D01*
X19940D01*
X19840Y18540D01*
Y18640D01*
X19940Y18740D01*
X20240D01*
X24240Y18890D02*
X24340Y18990D01*
X24540D01*
X24640Y18890D01*
Y18490D01*
X24540Y18390D01*
X24340D01*
X24240Y18490D01*
X23640Y18990D02*
X24040D01*
Y18690D01*
X23840Y18790D01*
X23740D01*
X23640Y18690D01*
Y18490D01*
X23740Y18390D01*
X23940D01*
X24040Y18490D01*
X23240Y27140D02*
X23340Y27240D01*
X23540D01*
X23640Y27140D01*
Y26740D01*
X23540Y26640D01*
X23340D01*
X23240Y26740D01*
X22740Y26640D02*
Y27240D01*
X23040Y26940D01*
X22640D01*
X24040Y23440D02*
X24140Y23540D01*
X24340D01*
X24440Y23440D01*
Y23040D01*
X24340Y22940D01*
X24140D01*
X24040Y23040D01*
X23840Y23440D02*
X23740Y23540D01*
X23540D01*
X23440Y23440D01*
Y23340D01*
X23540Y23240D01*
X23640D01*
X23540D01*
X23440Y23140D01*
Y23040D01*
X23540Y22940D01*
X23740D01*
X23840Y23040D01*
X22140Y18290D02*
X22240Y18390D01*
X22440D01*
X22540Y18290D01*
Y17890D01*
X22440Y17790D01*
X22240D01*
X22140Y17890D01*
X21540Y17790D02*
X21940D01*
X21540Y18190D01*
Y18290D01*
X21640Y18390D01*
X21840D01*
X21940Y18290D01*
X24590Y20940D02*
X24690Y21040D01*
X24890D01*
X24990Y20940D01*
Y20540D01*
X24890Y20440D01*
X24690D01*
X24590Y20540D01*
X24390Y20440D02*
X24190D01*
X24290D01*
Y21040D01*
X24390Y20940D01*
D54*
X19100Y22845D02*
G03*
X19100Y22445I0J-200D01*
G01*
X25650Y17370D02*
G03*
X25650Y16970I0J-200D01*
G01*
X22950Y21970D02*
G03*
X22950Y21570I0J-200D01*
G01*
X22500Y24000D02*
X23700D01*
X22500Y26300D02*
X23700D01*
X22500Y25450D02*
Y26300D01*
Y24000D02*
Y24850D01*
X23700Y25450D02*
Y26300D01*
Y24000D02*
Y24850D01*
X17000Y22225D02*
Y23075D01*
X19100Y22845D02*
Y23075D01*
Y22225D02*
Y22445D01*
X17000Y22225D02*
X19100D01*
X17000Y23075D02*
X19100D01*
X23850Y17800D02*
X25050D01*
X23850Y20100D02*
X25050D01*
X23850Y19250D02*
Y20100D01*
Y17800D02*
Y18650D01*
X25050Y19250D02*
Y20100D01*
Y17800D02*
Y18650D01*
X23500Y15750D02*
X24700D01*
X23500Y18050D02*
X24700D01*
X23500Y17200D02*
Y18050D01*
Y15750D02*
Y16600D01*
X24700Y17200D02*
Y18050D01*
Y15750D02*
Y16600D01*
X23550Y16750D02*
Y17600D01*
X25650Y17370D02*
Y17600D01*
Y16750D02*
Y16970D01*
X23550Y16750D02*
X25650D01*
X23550Y17600D02*
X25650D01*
X21400Y15150D02*
X22600D01*
X21400Y17450D02*
X22600D01*
X21400Y16600D02*
Y17450D01*
Y15150D02*
Y16000D01*
X22600Y16600D02*
Y17450D01*
Y15150D02*
Y16000D01*
X19700Y15800D02*
X20900D01*
X19700Y18100D02*
X20900D01*
X19700Y17250D02*
Y18100D01*
Y15800D02*
Y16650D01*
X20900Y17250D02*
Y18100D01*
Y15800D02*
Y16650D01*
X20850Y21350D02*
Y22200D01*
X22950Y21970D02*
Y22200D01*
Y21350D02*
Y21570D01*
X20850Y21350D02*
X22950D01*
X20850Y22200D02*
X22950D01*
X23300Y20300D02*
X24500D01*
X23300Y22600D02*
X24500D01*
X23300Y21750D02*
Y22600D01*
Y20300D02*
Y21150D01*
X24500Y21750D02*
Y22600D01*
Y20300D02*
Y21150D01*
X22836Y23593D02*
X23350D01*
X23093Y23850D02*
Y23336D01*
X24186Y17393D02*
X24700D01*
X24443Y17650D02*
Y17136D01*
X23836Y15343D02*
X24350D01*
X24093Y15600D02*
Y15086D01*
X21736Y14743D02*
X22250D01*
X21993Y15000D02*
Y14486D01*
X20036Y15393D02*
X20550D01*
X20293Y15650D02*
Y15136D01*
X23636Y19893D02*
X24150D01*
X23893Y20150D02*
Y19636D01*
M02*
