G04 Layer_Color=255*
%FSLAX24Y24*%
%MOIN*%
G70*
G01*
G75*
%ADD18R,0.0787X0.1772*%
%ADD19R,0.1772X0.0787*%
%ADD20C,0.0750*%
%ADD21R,0.0750X0.0750*%
%ADD22R,0.0750X0.0750*%
G04:AMPARAMS|DCode=23|XSize=216.5mil|YSize=224.4mil|CornerRadius=27.1mil|HoleSize=0mil|Usage=FLASHONLY|Rotation=90.000|XOffset=0mil|YOffset=0mil|HoleType=Round|Shape=RoundedRectangle|*
%AMROUNDEDRECTD23*
21,1,0.2165,0.1703,0,0,90.0*
21,1,0.1624,0.2244,0,0,90.0*
1,1,0.0541,0.0851,0.0812*
1,1,0.0541,0.0851,-0.0812*
1,1,0.0541,-0.0851,-0.0812*
1,1,0.0541,-0.0851,0.0812*
%
%ADD23ROUNDEDRECTD23*%
G04:AMPARAMS|DCode=24|XSize=39.4mil|YSize=63mil|CornerRadius=4.9mil|HoleSize=0mil|Usage=FLASHONLY|Rotation=90.000|XOffset=0mil|YOffset=0mil|HoleType=Round|Shape=RoundedRectangle|*
%AMROUNDEDRECTD24*
21,1,0.0394,0.0532,0,0,90.0*
21,1,0.0295,0.0630,0,0,90.0*
1,1,0.0098,0.0266,0.0148*
1,1,0.0098,0.0266,-0.0148*
1,1,0.0098,-0.0266,-0.0148*
1,1,0.0098,-0.0266,0.0148*
%
%ADD24ROUNDEDRECTD24*%
%ADD25R,0.0880X0.0620*%
%ADD26R,0.0250X0.0750*%
%ADD27O,0.0250X0.0750*%
%ADD28R,0.0906X0.0906*%
D18*
X10819Y28050D02*
D03*
X13181D02*
D03*
D19*
X12000Y26200D02*
D03*
D20*
X28150Y27550D02*
D03*
Y26550D02*
D03*
Y28550D02*
D03*
X21250Y11950D02*
D03*
X20250D02*
D03*
X22250D02*
D03*
X14100Y11900D02*
D03*
X13100D02*
D03*
X15100D02*
D03*
X28100Y22850D02*
D03*
Y15850D02*
D03*
Y18850D02*
D03*
Y14850D02*
D03*
Y20850D02*
D03*
Y19850D02*
D03*
Y16850D02*
D03*
Y17850D02*
D03*
Y21850D02*
D03*
D21*
X28150Y25550D02*
D03*
X28100Y13850D02*
D03*
D22*
X19250Y11950D02*
D03*
X12100Y11900D02*
D03*
D23*
X21307Y27800D02*
D03*
D24*
X18393Y28700D02*
D03*
X18393Y26900D02*
D03*
D25*
X23100Y24450D02*
D03*
Y25850D02*
D03*
X24450Y18250D02*
D03*
Y19650D02*
D03*
X24100Y16200D02*
D03*
Y17600D02*
D03*
X22000Y15600D02*
D03*
Y17000D02*
D03*
X20300Y16250D02*
D03*
Y17650D02*
D03*
X23900Y20750D02*
D03*
Y22150D02*
D03*
D26*
X17800Y21625D02*
D03*
X17300Y23675D02*
D03*
X18800D02*
D03*
X17800D02*
D03*
X17300Y21625D02*
D03*
X18300D02*
D03*
Y23675D02*
D03*
X24350Y16150D02*
D03*
X23850Y18200D02*
D03*
X25350D02*
D03*
X24350D02*
D03*
X23850Y16150D02*
D03*
X24850D02*
D03*
Y18200D02*
D03*
X21650Y20750D02*
D03*
X21150Y22800D02*
D03*
X22650D02*
D03*
X21650D02*
D03*
X21150Y20750D02*
D03*
X22150D02*
D03*
Y22800D02*
D03*
D27*
X18800Y21625D02*
D03*
X25350Y16150D02*
D03*
X22650Y20750D02*
D03*
D28*
X25700Y26072D02*
D03*
Y24300D02*
D03*
X23200Y17422D02*
D03*
Y15650D02*
D03*
X20150Y21622D02*
D03*
Y19850D02*
D03*
M02*
