G04 Layer_Color=8388736*
%FSLAX24Y24*%
%MOIN*%
G70*
G01*
G75*
%ADD35R,0.0316X0.0277*%
%ADD36O,0.0277X0.0769*%
%ADD37O,0.0769X0.0277*%
G04:AMPARAMS|DCode=38|XSize=58mil|YSize=58mil|CornerRadius=10.3mil|HoleSize=0mil|Usage=FLASHONLY|Rotation=90.000|XOffset=0mil|YOffset=0mil|HoleType=Round|Shape=RoundedRectangle|*
%AMROUNDEDRECTD38*
21,1,0.0580,0.0375,0,0,90.0*
21,1,0.0375,0.0580,0,0,90.0*
1,1,0.0205,0.0188,0.0188*
1,1,0.0205,0.0188,-0.0188*
1,1,0.0205,-0.0188,-0.0188*
1,1,0.0205,-0.0188,0.0188*
%
%ADD38ROUNDEDRECTD38*%
%ADD39R,0.0907X0.0631*%
%ADD40R,0.0395X0.0434*%
%ADD41R,0.0277X0.0316*%
%ADD42R,0.0789X0.0631*%
%ADD43R,0.0867X0.1852*%
%ADD44R,0.1852X0.0867*%
%ADD45C,0.0830*%
%ADD46R,0.0830X0.0830*%
%ADD47R,0.0830X0.0830*%
D35*
X116350Y28703D02*
D03*
Y29097D02*
D03*
X114150Y28703D02*
D03*
Y29097D02*
D03*
X104400Y28703D02*
D03*
Y29097D02*
D03*
X100700Y28703D02*
D03*
Y29097D02*
D03*
X98700Y28703D02*
D03*
Y29097D02*
D03*
X93000Y28703D02*
D03*
Y29097D02*
D03*
X90800Y28703D02*
D03*
Y29097D02*
D03*
X88600Y28703D02*
D03*
Y29097D02*
D03*
X55600Y28703D02*
D03*
Y29097D02*
D03*
X53400Y28703D02*
D03*
Y29097D02*
D03*
X22250Y21550D02*
D03*
Y21944D02*
D03*
X19950Y17850D02*
D03*
Y18244D02*
D03*
X17650Y16853D02*
D03*
Y17247D02*
D03*
X16000Y17600D02*
D03*
Y17994D02*
D03*
X77800Y28703D02*
D03*
Y29097D02*
D03*
X72600Y28703D02*
D03*
Y29097D02*
D03*
X67400Y28703D02*
D03*
Y29097D02*
D03*
X62400Y28703D02*
D03*
Y29097D02*
D03*
X60100Y28703D02*
D03*
Y29097D02*
D03*
X57800Y28703D02*
D03*
Y29097D02*
D03*
D36*
X12375Y23824D02*
D03*
X12690D02*
D03*
X13005D02*
D03*
X13320D02*
D03*
X13635D02*
D03*
X13950D02*
D03*
X14265D02*
D03*
X14580D02*
D03*
X14895D02*
D03*
X15210D02*
D03*
X15525D02*
D03*
Y19376D02*
D03*
X15210D02*
D03*
X14895D02*
D03*
X14580D02*
D03*
X14265D02*
D03*
X13950D02*
D03*
X13635D02*
D03*
X13320D02*
D03*
X13005D02*
D03*
X12690D02*
D03*
X12375D02*
D03*
D37*
X16174Y23175D02*
D03*
Y22860D02*
D03*
Y22545D02*
D03*
Y22230D02*
D03*
Y21915D02*
D03*
Y21600D02*
D03*
Y21285D02*
D03*
Y20970D02*
D03*
Y20655D02*
D03*
Y20340D02*
D03*
Y20025D02*
D03*
X11726D02*
D03*
Y20340D02*
D03*
Y20655D02*
D03*
Y20970D02*
D03*
Y21285D02*
D03*
Y21600D02*
D03*
Y21915D02*
D03*
Y22230D02*
D03*
Y22545D02*
D03*
Y22860D02*
D03*
Y23175D02*
D03*
D38*
X86100Y28125D02*
D03*
Y28875D02*
D03*
X83200Y28125D02*
D03*
Y28875D02*
D03*
X80300Y28125D02*
D03*
Y28875D02*
D03*
X75100Y28125D02*
D03*
Y28875D02*
D03*
X69900Y28125D02*
D03*
Y28875D02*
D03*
X64700Y28125D02*
D03*
Y28875D02*
D03*
D39*
X22800Y26778D02*
D03*
Y28550D02*
D03*
X19217Y26778D02*
D03*
Y28550D02*
D03*
D40*
X10600Y15700D02*
D03*
X11112D02*
D03*
X13750Y15850D02*
D03*
X14262D02*
D03*
D41*
X18956Y23700D02*
D03*
X19350D02*
D03*
X18656Y22050D02*
D03*
X19050D02*
D03*
X106603Y29100D02*
D03*
X106997D02*
D03*
X102703D02*
D03*
X103097D02*
D03*
D42*
X10950Y17695D02*
D03*
X12682Y16750D02*
D03*
X10950D02*
D03*
X12682Y17695D02*
D03*
D43*
X10819Y28050D02*
D03*
X13181D02*
D03*
D44*
X12000Y26200D02*
D03*
D45*
X28150Y27550D02*
D03*
Y26550D02*
D03*
Y28550D02*
D03*
X21250Y11950D02*
D03*
X20250D02*
D03*
X22250D02*
D03*
X14100Y11900D02*
D03*
X13100D02*
D03*
X15100D02*
D03*
X28100Y22850D02*
D03*
Y15850D02*
D03*
Y18850D02*
D03*
Y14850D02*
D03*
Y20850D02*
D03*
Y19850D02*
D03*
Y16850D02*
D03*
Y17850D02*
D03*
Y21850D02*
D03*
D46*
X28150Y25550D02*
D03*
X28100Y13850D02*
D03*
D47*
X19250Y11950D02*
D03*
X12100Y11900D02*
D03*
M02*
