M48
;Layer_Color=9474304
;FILE_FORMAT=2:4
INCH
;TYPE=PLATED
T1F00S00C0.0150
T2F00S00C0.0280
T3F00S00C0.0354
T4F00S00C0.0354
T5F00S00C0.0430
T6F00S00C0.0453
T7F00S00C0.1181
T8F00S00C0.1378
%
T01
X013500Y011150
X015550Y012250
X014725Y013175
X015050Y015050
X015550Y015300
X013450Y015250
X013250Y015550
X011850Y015150
X017250Y015250
X017150Y013450
X016500Y012950
X016600Y011800
X022450Y011100
X022950
X024950Y011500
X024500Y013550
X023700Y013650
X026450Y014550
X020250Y015550
X019900Y015850
X021821Y016290
X021750Y016650
X023300Y017400
X024450Y016650
X025800Y016100
X025750Y017600
X024375Y020850
X023400Y020600
X022400Y020500
X021700Y020850
X020650Y022400
X021800Y025550
X023000
X024200
Y027050
X023000
X021800
X016100Y026250
X015756Y021256
X018050Y019450
X018300Y018900
X017450Y017450
X017050Y017750
X015900Y015650
X020800Y018200
X015550Y020650
X014950Y020100
X013700Y022150
X012400Y022650
X011000Y021750
X010850Y019100
X012700Y016800
X012410Y016490
X012150Y016200
X013000Y015900
T02
X010850Y013450
X020650Y011850
X026300Y013250
X026450Y016950
X026400Y019550
X025750Y021700
X026050Y022550
X017350Y022850
X018850Y024600
X014100Y019900
X011950Y018600
X011078Y016878
X011050Y027700
Y028750
X012150
Y027700
T03
X011950Y020260
Y022228
T04
X017150Y026266
Y028234
T05
X014550Y010900
X015550
X016550
X017550
X018550
X019550
X028350Y012800
Y013800
Y014800
Y015800
Y016800
Y017800
Y018800
Y019800
Y020800
Y021800
Y025550
Y026550
Y027550
Y028550
X024500Y028300
X023500
X022500
X021500
X020500
T06
X010887Y019866
Y022622
T07
X011150Y025331
X013000Y026512
T08
X013000Y024150
M30
