G04 Layer_Physical_Order=2*
G04 Layer_Color=36540*
%FSAX24Y24*%
%MOIN*%
G70*
G01*
G75*
%ADD24C,0.0100*%
%ADD28R,0.0750X0.0750*%
%ADD31R,0.1500X0.1500*%
G04:AMPARAMS|DCode=33|XSize=78.7mil|YSize=78.7mil|CornerRadius=9.8mil|HoleSize=0mil|Usage=FLASHONLY|Rotation=90.000|XOffset=0mil|YOffset=0mil|HoleType=Round|Shape=RoundedRectangle|*
%AMROUNDEDRECTD33*
21,1,0.0787,0.0591,0,0,90.0*
21,1,0.0591,0.0787,0,0,90.0*
1,1,0.0197,0.0295,0.0295*
1,1,0.0197,0.0295,-0.0295*
1,1,0.0197,-0.0295,-0.0295*
1,1,0.0197,-0.0295,0.0295*
%
%ADD33ROUNDEDRECTD33*%
%ADD36C,0.0300*%
%ADD38C,0.0750*%
D24*
X021800Y024600D02*
Y025550D01*
X023000Y024450D02*
Y025550D01*
X024200Y024250D02*
Y025550D01*
X028350Y024300D02*
Y025550D01*
X027300Y023250D02*
X028350Y024300D01*
X024450Y016650D02*
X024850Y016250D01*
Y013050D02*
Y016250D01*
X024550Y012750D02*
X024850Y013050D01*
X024400Y013000D02*
X024500Y013100D01*
X013450Y014800D02*
Y015250D01*
X024500Y013100D02*
Y013550D01*
X021150Y016650D02*
X021750D01*
X020350Y015850D02*
X021150Y016650D01*
X019900Y015850D02*
X020350D01*
X021350Y016300D02*
X021811D01*
X020600Y015550D02*
X021350Y016300D01*
X020250Y015550D02*
X020600D01*
X021811Y016300D02*
X021821Y016290D01*
X011550Y011850D02*
Y015950D01*
X011800Y016200D01*
X012150D01*
X012165Y016185D01*
X015050Y015050D02*
Y017450D01*
X015550Y015300D02*
Y017724D01*
X015900Y015650D02*
Y017847D01*
X018500Y020447D01*
X015550Y017724D02*
X018300Y020474D01*
Y022500D01*
X018500Y020447D02*
Y022450D01*
X015050Y017450D02*
X018100Y020500D01*
Y022550D01*
X018500Y022450D02*
X019850Y023800D01*
X023750D01*
X024200Y024250D01*
X022510Y023960D02*
X023000Y024450D01*
X021320Y024120D02*
X021800Y024600D01*
X019670Y024120D02*
X021320D01*
X019760Y023960D02*
X022510D01*
X018300Y022500D02*
X019760Y023960D01*
X018100Y022550D02*
X019670Y024120D01*
X017450Y017450D02*
X018100D01*
X021150Y020500D01*
X022400D01*
X017050Y017750D02*
X018150D01*
X021250Y020850D01*
X021700D01*
X024375Y017175D02*
Y020850D01*
Y017175D02*
X025050Y016500D01*
Y012900D02*
Y016500D01*
X013450Y014800D02*
X014100Y014150D01*
X013000Y015550D02*
X013250D01*
X012850Y015400D02*
X013000Y015550D01*
X012750Y015900D02*
X013000D01*
X012600Y015750D02*
X012750Y015900D01*
X011850Y014950D02*
Y015150D01*
Y014950D02*
X013350Y013450D01*
X017150D01*
X012600Y014426D02*
Y015750D01*
Y014426D02*
X013226Y013800D01*
X012850Y014403D02*
X013263Y013990D01*
X012850Y014403D02*
Y015400D01*
X024710Y012560D02*
X025050Y012900D01*
X014100Y014150D02*
X017800D01*
X018950Y013000D01*
X024400D01*
X013263Y013990D02*
X017710D01*
X013226Y013800D02*
X017650D01*
X017710Y013990D02*
X018950Y012750D01*
X024550D01*
X017650Y013800D02*
X018890Y012560D01*
X024710D01*
X015210Y012690D02*
X018460D01*
X014725Y013175D02*
X015210Y012690D01*
X018460D02*
X018750Y012400D01*
X026250D01*
X027300Y013450D01*
Y023250D01*
X011550Y011850D02*
X012250Y011150D01*
X013244Y011144D02*
X013250Y011150D01*
X013500D01*
X012250D02*
X013500D01*
D28*
X028350Y025550D02*
D03*
D31*
X013000Y024150D02*
D03*
D33*
X017150Y026266D02*
D03*
D36*
X015050Y015050D02*
D03*
X015550Y015300D02*
D03*
X015900Y015650D02*
D03*
X014725Y013175D02*
D03*
X013000Y015900D02*
D03*
X013250Y015550D02*
D03*
X013450Y015250D02*
D03*
X017450Y017450D02*
D03*
X017050Y017750D02*
D03*
X020250Y015550D02*
D03*
X019900Y015850D02*
D03*
X021821Y016290D02*
D03*
X021750Y016650D02*
D03*
X021700Y020850D02*
D03*
X024200Y025550D02*
D03*
X023000D02*
D03*
X021800D02*
D03*
X011850Y015150D02*
D03*
X024450Y016650D02*
D03*
X024500Y013550D02*
D03*
X024375Y020850D02*
D03*
X012150Y016200D02*
D03*
X017150Y013450D02*
D03*
X022400Y020500D02*
D03*
X013500Y011150D02*
D03*
D38*
X016850Y024550D02*
Y026232D01*
X012662Y024150D02*
X016450D01*
X016850Y024550D01*
M02*
