G04 Layer_Color=32896*
%FSAX24Y24*%
%MOIN*%
G70*
G01*
G75*
%ADD24C,0.0100*%
%ADD56C,0.0060*%
%ADD57C,0.0098*%
%ADD59C,0.0050*%
%ADD60C,0.0079*%
%ADD61C,0.0080*%
%ADD101R,0.0394X0.0197*%
D24*
X018100Y025550D02*
X017500D01*
Y025250D01*
X017600Y025150D01*
X017800D01*
X017900Y025250D01*
Y025550D01*
Y025350D02*
X018100Y025150D01*
X017600Y024950D02*
X017500Y024850D01*
Y024650D01*
X017600Y024550D01*
X017700D01*
X017800Y024650D01*
Y024750D01*
Y024650D01*
X017900Y024550D01*
X018000D01*
X018100Y024650D01*
Y024850D01*
X018000Y024950D01*
X017600Y024350D02*
X017500Y024250D01*
Y024050D01*
X017600Y023951D01*
X018000D01*
X018100Y024050D01*
Y024250D01*
X018000Y024350D01*
X017600D01*
D56*
X022753Y016650D02*
Y016827D01*
X023147D01*
Y016650D02*
Y016827D01*
Y016079D02*
Y016256D01*
X022753Y016079D02*
X023147D01*
X022753D02*
Y016256D01*
X022447Y016847D02*
X022624D01*
Y016453D02*
Y016847D01*
X022447Y016453D02*
X022624D01*
X021876D02*
X022053D01*
X021876D02*
Y016847D01*
X022053D01*
X015247Y028023D02*
Y028200D01*
X014853Y028023D02*
X015247D01*
X014853D02*
Y028200D01*
Y028594D02*
Y028771D01*
X015247D01*
Y028594D02*
Y028771D01*
X024687Y022059D02*
X025513D01*
X024687Y023241D02*
X025513D01*
X024687Y022059D02*
Y022374D01*
X025513Y022059D02*
Y022355D01*
Y022926D02*
Y023241D01*
X024687Y022926D02*
Y023241D01*
X022703Y020844D02*
Y021021D01*
X023097D01*
Y020844D02*
Y021021D01*
Y020273D02*
Y020450D01*
X022703Y020273D02*
X023097D01*
X022703D02*
Y020450D01*
X018996Y021137D02*
Y021963D01*
X017815Y021137D02*
Y021963D01*
X018681Y021137D02*
X018996D01*
X018701Y021963D02*
X018996D01*
X017815D02*
X018130D01*
X017815Y021137D02*
X018130D01*
X022394Y021047D02*
X022571D01*
Y020653D02*
Y021047D01*
X022394Y020653D02*
X022571D01*
X021823D02*
X022000D01*
X021823D02*
Y021047D01*
X022000D01*
X024937Y017954D02*
X025763D01*
X024937Y019135D02*
X025763D01*
X024937Y017954D02*
Y018269D01*
X025763Y017954D02*
Y018249D01*
Y018820D02*
Y019135D01*
X024937Y018820D02*
Y019135D01*
X022753Y011897D02*
Y012074D01*
X023147D01*
Y011897D02*
Y012074D01*
Y011326D02*
Y011503D01*
X022753Y011326D02*
X023147D01*
X022753D02*
Y011503D01*
X022253Y011897D02*
Y012074D01*
X022647D01*
Y011897D02*
Y012074D01*
Y011326D02*
Y011503D01*
X022253Y011326D02*
X022647D01*
X022253D02*
Y011503D01*
X018946Y012237D02*
Y013063D01*
X017765Y012237D02*
Y013063D01*
X018631Y012237D02*
X018946D01*
X018651Y013063D02*
X018946D01*
X017765D02*
X018080D01*
X017765Y012237D02*
X018080D01*
X024887Y012965D02*
X025713D01*
X024887Y014146D02*
X025713D01*
X024887Y012965D02*
Y013280D01*
X025713Y012965D02*
Y013260D01*
Y013831D02*
Y014146D01*
X024887Y013831D02*
Y014146D01*
X016853Y027400D02*
Y027577D01*
X017247D01*
Y027400D02*
Y027577D01*
Y026829D02*
Y027006D01*
X016853Y026829D02*
X017247D01*
X016853D02*
Y027006D01*
X019135Y016987D02*
Y017813D01*
X017954Y016987D02*
Y017813D01*
X018820Y016987D02*
X019135D01*
X018840Y017813D02*
X019135D01*
X017954D02*
X018269D01*
X017954Y016987D02*
X018269D01*
X014260Y028187D02*
Y028364D01*
X014654D01*
Y028187D02*
Y028364D01*
Y027616D02*
Y027793D01*
X014260Y027616D02*
X014654D01*
X014260D02*
Y027793D01*
X017303Y023115D02*
X017598D01*
Y023785D01*
X017303D02*
X017598D01*
X016614D02*
X016909D01*
X016614Y023115D02*
Y023785D01*
Y023115D02*
X016909D01*
D57*
X013974Y029150D02*
G03*
X013974Y029150I-000049J000000D01*
G01*
D59*
X015739Y026306D02*
Y026424D01*
X015621Y026306D02*
Y026424D01*
Y026306D02*
X015739Y026365D01*
X015621Y026424D02*
X015739Y026365D01*
X015621D02*
X015739D01*
X015365D02*
Y027035D01*
X014480Y026365D02*
X015621D01*
X014479Y027035D02*
X015621D01*
X015326Y026365D02*
Y027035D01*
X015404Y026365D02*
Y027035D01*
X015739Y025406D02*
Y025524D01*
X015621Y025406D02*
Y025524D01*
Y025406D02*
X015739Y025465D01*
X015621Y025524D02*
X015739Y025465D01*
X015621D02*
X015739D01*
X015365D02*
Y026135D01*
X014480Y025465D02*
X015621D01*
X014479Y026135D02*
X015621D01*
X015326Y025465D02*
Y026135D01*
X015404Y025465D02*
Y026135D01*
X011228Y029431D02*
Y029628D01*
Y026872D02*
Y027069D01*
X013591Y026872D02*
Y029628D01*
Y027541D02*
X014063D01*
X013591Y027148D02*
Y027541D01*
Y027148D02*
X014063D01*
X013591Y028447D02*
X013906D01*
X013591Y028053D02*
Y028447D01*
Y028053D02*
X013906D01*
Y028447D01*
X013591Y028959D02*
X014063D01*
X013591D02*
Y029352D01*
X014063D01*
X011228Y026872D02*
X013591D01*
X011228Y029628D02*
X013591D01*
X024481Y021689D02*
X024600D01*
X024481Y021729D02*
X024600D01*
X024481Y021650D02*
Y021729D01*
X024600Y021689D02*
X024718D01*
X024600Y021729D02*
X024718D01*
Y021650D02*
Y021729D01*
X023300Y021689D02*
X023419D01*
X023300Y021729D02*
X023419D01*
Y021650D02*
Y021729D01*
X023182Y021689D02*
X023300D01*
X023182Y021729D02*
X023300D01*
X023182Y021650D02*
Y021729D01*
X024600Y021650D02*
Y023579D01*
X024481Y021650D02*
X024718D01*
X023182D02*
X023419D01*
X023300D02*
Y023579D01*
X019935Y023404D02*
Y023601D01*
Y022499D02*
Y022691D01*
Y023404D02*
X020329D01*
X019935Y022696D02*
X020329D01*
Y023404D02*
Y023601D01*
X018518Y023404D02*
Y023601D01*
X020329Y022499D02*
Y022696D01*
X018518Y022499D02*
Y022696D01*
Y023601D02*
X020329D01*
X018518Y022499D02*
X020329D01*
X020389Y019204D02*
Y019401D01*
Y018299D02*
Y018491D01*
Y019204D02*
X020782D01*
X020389Y018496D02*
X020782D01*
Y019204D02*
Y019401D01*
X018971Y019204D02*
Y019401D01*
X020782Y018299D02*
Y018496D01*
X018971Y018299D02*
Y018496D01*
Y019401D02*
X020782D01*
X018971Y018299D02*
X020782D01*
X024732Y017410D02*
X024850D01*
X024732Y017450D02*
X024850D01*
X024732Y017371D02*
Y017450D01*
X024850Y017410D02*
X024968D01*
X024850Y017450D02*
X024968D01*
Y017371D02*
Y017450D01*
X023550Y017410D02*
X023668D01*
X023550Y017450D02*
X023668D01*
Y017371D02*
Y017450D01*
X023432Y017410D02*
X023550D01*
X023432Y017450D02*
X023550D01*
X023432Y017371D02*
Y017450D01*
X024850Y017371D02*
Y019300D01*
X024732Y017371D02*
X024968D01*
X023432D02*
X023668D01*
X023550D02*
Y019300D01*
X019489Y013241D02*
X020512D01*
X019489D02*
Y013359D01*
Y011941D02*
Y012059D01*
X020512D01*
X019528Y011941D02*
Y012059D01*
X019567Y011941D02*
Y012059D01*
X019489Y011941D02*
X019567D01*
X019489Y013359D02*
X019567D01*
Y013241D02*
Y013359D01*
X019528Y013241D02*
Y013359D01*
X024681Y012639D02*
X024800D01*
X024681Y012679D02*
X024800D01*
X024681Y012600D02*
Y012679D01*
X024800Y012639D02*
X024918D01*
X024800Y012679D02*
X024918D01*
Y012600D02*
Y012679D01*
X023500Y012639D02*
X023619D01*
X023500Y012679D02*
X023619D01*
Y012600D02*
Y012679D01*
X023382Y012639D02*
X023500D01*
X023382Y012679D02*
X023500D01*
X023382Y012600D02*
Y012679D01*
X024800Y012600D02*
Y014529D01*
X024681Y012600D02*
X024918D01*
X023382D02*
X023619D01*
X023500D02*
Y014529D01*
X019670Y017991D02*
Y018109D01*
X019709Y017991D02*
Y018109D01*
X019630D02*
X019709D01*
X019630Y016691D02*
X019709D01*
Y016809D01*
X019670Y016691D02*
Y016809D01*
X019630D02*
X020654D01*
X019630Y016691D02*
Y016809D01*
Y017991D02*
Y018109D01*
Y017991D02*
X020654D01*
X019520Y022141D02*
Y022259D01*
X019559Y022141D02*
Y022259D01*
X019480D02*
X019559D01*
X019480Y020841D02*
X019559D01*
Y020959D01*
X019520Y020841D02*
Y020959D01*
X019480D02*
X020504D01*
X019480Y020841D02*
Y020959D01*
Y022141D02*
Y022259D01*
Y022141D02*
X020504D01*
X020039Y014404D02*
Y014601D01*
Y013499D02*
Y013691D01*
Y014404D02*
X020432D01*
X020039Y013696D02*
X020432D01*
Y014404D02*
Y014601D01*
X018621Y014404D02*
Y014601D01*
X020432Y013499D02*
Y013696D01*
X018621Y013499D02*
Y013696D01*
Y014601D02*
X020432D01*
X018621Y013499D02*
X020432D01*
D60*
X014585Y022819D02*
X016396D01*
X014585D02*
Y025181D01*
X016396D01*
Y022819D02*
Y025181D01*
D61*
X021150Y013405D02*
G03*
X021150Y013805I000000J000200D01*
G01*
Y018155D02*
G03*
X021150Y018555I000000J000200D01*
G01*
X021100Y022305D02*
G03*
X021100Y022705I000000J000200D01*
G01*
X023250Y013175D02*
Y014025D01*
X021150Y013175D02*
Y013405D01*
Y013805D02*
Y014025D01*
X023250D01*
X021150Y013175D02*
X023250D01*
Y017925D02*
Y018775D01*
X021150Y017925D02*
Y018155D01*
Y018555D02*
Y018775D01*
X023250D01*
X021150Y017925D02*
X023250D01*
X023200Y022075D02*
Y022925D01*
X021100Y022075D02*
Y022305D01*
Y022705D02*
Y022925D01*
X023200D01*
X021100Y022075D02*
X023200D01*
X017200Y025700D02*
Y025250D01*
X016975D01*
X016900Y025325D01*
Y025625D01*
X016975Y025700D01*
X017200D01*
X016750Y025250D02*
X016600D01*
X016675D01*
Y025700D01*
X016750Y025625D01*
X016375D02*
X016300Y025700D01*
X016150D01*
X016075Y025625D01*
Y025550D01*
X016150Y025475D01*
X016225D01*
X016150D01*
X016075Y025400D01*
Y025325D01*
X016150Y025250D01*
X016300D01*
X016375Y025325D01*
X016350Y027700D02*
Y027250D01*
X016125D01*
X016050Y027325D01*
Y027625D01*
X016125Y027700D01*
X016350D01*
X015900Y027250D02*
X015750D01*
X015825D01*
Y027700D01*
X015900Y027625D01*
X015225Y027250D02*
X015525D01*
X015225Y027550D01*
Y027625D01*
X015300Y027700D01*
X015450D01*
X015525Y027625D01*
X015050Y022275D02*
Y022575D01*
X015125Y022650D01*
X015275D01*
X015350Y022575D01*
Y022275D01*
X015275Y022200D01*
X015125D01*
X015200Y022350D02*
X015050Y022200D01*
X015125D02*
X015050Y022275D01*
X014900Y022200D02*
X014750D01*
X014825D01*
Y022650D01*
X014900Y022575D01*
X025650Y014775D02*
X025725Y014850D01*
X025875D01*
X025950Y014775D01*
Y014475D01*
X025875Y014400D01*
X025725D01*
X025650Y014475D01*
X025500D02*
X025425Y014400D01*
X025275D01*
X025200Y014475D01*
Y014775D01*
X025275Y014850D01*
X025425D01*
X025500Y014775D01*
Y014700D01*
X025425Y014625D01*
X025200D01*
X021650Y010900D02*
X022100D01*
Y011125D01*
X022025Y011200D01*
X021875D01*
X021800Y011125D01*
Y010900D01*
Y011050D02*
X021650Y011200D01*
Y011350D02*
Y011500D01*
Y011425D01*
X022100D01*
X022025Y011350D01*
Y011725D02*
X022100Y011800D01*
Y011950D01*
X022025Y012025D01*
X021725D01*
X021650Y011950D01*
Y011800D01*
X021725Y011725D01*
X022025D01*
X023350Y011300D02*
X023800D01*
Y011525D01*
X023725Y011600D01*
X023575D01*
X023500Y011525D01*
Y011300D01*
Y011450D02*
X023350Y011600D01*
X023425Y011750D02*
X023350Y011825D01*
Y011975D01*
X023425Y012050D01*
X023725D01*
X023800Y011975D01*
Y011825D01*
X023725Y011750D01*
X023650D01*
X023575Y011825D01*
Y012050D01*
X022550Y016250D02*
X022100D01*
Y016025D01*
X022175Y015950D01*
X022325D01*
X022400Y016025D01*
Y016250D01*
Y016100D02*
X022550Y015950D01*
X022100Y015500D02*
X022175Y015650D01*
X022325Y015800D01*
X022475D01*
X022550Y015725D01*
Y015575D01*
X022475Y015500D01*
X022400D01*
X022325Y015575D01*
Y015800D01*
X024100Y016250D02*
Y016700D01*
X023875D01*
X023800Y016625D01*
Y016475D01*
X023875Y016400D01*
X024100D01*
X023950D02*
X023800Y016250D01*
X023350Y016700D02*
X023650D01*
Y016475D01*
X023500Y016550D01*
X023425D01*
X023350Y016475D01*
Y016325D01*
X023425Y016250D01*
X023575D01*
X023650Y016325D01*
X022050Y020000D02*
Y020450D01*
X021825D01*
X021750Y020375D01*
Y020225D01*
X021825Y020150D01*
X022050D01*
X021900D02*
X021750Y020000D01*
X021375D02*
Y020450D01*
X021600Y020225D01*
X021300D01*
X024000Y020650D02*
Y021100D01*
X023775D01*
X023700Y021025D01*
Y020875D01*
X023775Y020800D01*
X024000D01*
X023850D02*
X023700Y020650D01*
X023550Y021025D02*
X023475Y021100D01*
X023325D01*
X023250Y021025D01*
Y020950D01*
X023325Y020875D01*
X023400D01*
X023325D01*
X023250Y020800D01*
Y020725D01*
X023325Y020650D01*
X023475D01*
X023550Y020725D01*
X017850Y027328D02*
X017925Y027403D01*
X018075D01*
X018150Y027328D01*
Y027028D01*
X018075Y026953D01*
X017925D01*
X017850Y027028D01*
X017700Y027403D02*
X017400D01*
Y027328D01*
X017700Y027028D01*
Y026953D01*
X017550Y012350D02*
Y012800D01*
X017325D01*
X017250Y012725D01*
Y012575D01*
X017325Y012500D01*
X017550D01*
X017400D02*
X017250Y012350D01*
X016800D02*
X017100D01*
X016800Y012650D01*
Y012725D01*
X016875Y012800D01*
X017025D01*
X017100Y012725D01*
X016650Y012350D02*
X016500D01*
X016575D01*
Y012800D01*
X016650Y012725D01*
X017700Y016600D02*
Y017050D01*
X017475D01*
X017400Y016975D01*
Y016825D01*
X017475Y016750D01*
X017700D01*
X017550D02*
X017400Y016600D01*
X017250D02*
X017100D01*
X017175D01*
Y017050D01*
X017250Y016975D01*
X016875Y016675D02*
X016800Y016600D01*
X016650D01*
X016575Y016675D01*
Y016975D01*
X016650Y017050D01*
X016800D01*
X016875Y016975D01*
Y016900D01*
X016800Y016825D01*
X016575D01*
X018750Y020500D02*
Y020950D01*
X018525D01*
X018450Y020875D01*
Y020725D01*
X018525Y020650D01*
X018750D01*
X018600D02*
X018450Y020500D01*
X018300D02*
X018150D01*
X018225D01*
Y020950D01*
X018300Y020875D01*
X017625Y020500D02*
X017925D01*
X017625Y020800D01*
Y020875D01*
X017700Y020950D01*
X017850D01*
X017925Y020875D01*
X024300Y015475D02*
X024375Y015550D01*
X024525D01*
X024600Y015475D01*
Y015175D01*
X024525Y015100D01*
X024375D01*
X024300Y015175D01*
X024150Y015100D02*
X024000D01*
X024075D01*
Y015550D01*
X024150Y015475D01*
X023775Y015175D02*
X023700Y015100D01*
X023550D01*
X023475Y015175D01*
Y015475D01*
X023550Y015550D01*
X023700D01*
X023775Y015475D01*
Y015400D01*
X023700Y015325D01*
X023475D01*
X025300Y020025D02*
X025375Y020100D01*
X025525D01*
X025600Y020025D01*
Y019725D01*
X025525Y019650D01*
X025375D01*
X025300Y019725D01*
X025150Y019650D02*
X025000D01*
X025075D01*
Y020100D01*
X025150Y020025D01*
X024775Y020100D02*
X024475D01*
Y020025D01*
X024775Y019725D01*
Y019650D01*
X018950Y011975D02*
X019025Y012050D01*
X019175D01*
X019250Y011975D01*
Y011675D01*
X019175Y011600D01*
X019025D01*
X018950Y011675D01*
X018800Y011600D02*
X018650D01*
X018725D01*
Y012050D01*
X018800Y011975D01*
X020400Y016525D02*
X020475Y016600D01*
X020625D01*
X020700Y016525D01*
Y016225D01*
X020625Y016150D01*
X020475D01*
X020400Y016225D01*
X019950Y016150D02*
X020250D01*
X019950Y016450D01*
Y016525D01*
X020025Y016600D01*
X020175D01*
X020250Y016525D01*
X020400Y020675D02*
X020475Y020750D01*
X020625D01*
X020700Y020675D01*
Y020375D01*
X020625Y020300D01*
X020475D01*
X020400Y020375D01*
X020250Y020675D02*
X020175Y020750D01*
X020025D01*
X019950Y020675D01*
Y020600D01*
X020025Y020525D01*
X020100D01*
X020025D01*
X019950Y020450D01*
Y020375D01*
X020025Y020300D01*
X020175D01*
X020250Y020375D01*
X025600Y023780D02*
X025675Y023855D01*
X025825D01*
X025900Y023780D01*
Y023480D01*
X025825Y023406D01*
X025675D01*
X025600Y023480D01*
X025225Y023406D02*
Y023855D01*
X025450Y023630D01*
X025150D01*
X023650Y024625D02*
X023725Y024700D01*
X023875D01*
X023950Y024625D01*
Y024325D01*
X023875Y024250D01*
X023725D01*
X023650Y024325D01*
X023200Y024700D02*
X023500D01*
Y024475D01*
X023350Y024550D01*
X023275D01*
X023200Y024475D01*
Y024325D01*
X023275Y024250D01*
X023425D01*
X023500Y024325D01*
X026400Y018675D02*
X026475Y018750D01*
X026625D01*
X026700Y018675D01*
Y018375D01*
X026625Y018300D01*
X026475D01*
X026400Y018375D01*
X025950Y018750D02*
X026100Y018675D01*
X026250Y018525D01*
Y018375D01*
X026175Y018300D01*
X026025D01*
X025950Y018375D01*
Y018450D01*
X026025Y018525D01*
X026250D01*
X014275Y029450D02*
X014200Y029525D01*
Y029675D01*
X014275Y029750D01*
X014575D01*
X014650Y029675D01*
Y029525D01*
X014575Y029450D01*
X014650Y029300D02*
Y029150D01*
Y029225D01*
X014200D01*
X014275Y029300D01*
Y028925D02*
X014200Y028850D01*
Y028700D01*
X014275Y028625D01*
X014575D01*
X014650Y028700D01*
Y028850D01*
X014575Y028925D01*
X014275D01*
X015750Y029375D02*
X015825Y029450D01*
X015975D01*
X016050Y029375D01*
Y029075D01*
X015975Y029000D01*
X015825D01*
X015750Y029075D01*
X015600Y029000D02*
X015450D01*
X015525D01*
Y029450D01*
X015600Y029375D01*
X015225Y029000D02*
X015075D01*
X015150D01*
Y029450D01*
X015225Y029375D01*
X019600Y024250D02*
Y023800D01*
X019375D01*
X019300Y023875D01*
Y024175D01*
X019375Y024250D01*
X019600D01*
X019150Y023800D02*
X019000D01*
X019075D01*
Y024250D01*
X019150Y024175D01*
X020000Y020050D02*
Y019600D01*
X019775D01*
X019700Y019675D01*
Y019975D01*
X019775Y020050D01*
X020000D01*
X019250Y019600D02*
X019550D01*
X019250Y019900D01*
Y019975D01*
X019325Y020050D01*
X019475D01*
X019550Y019975D01*
X019850Y015250D02*
Y014800D01*
X019625D01*
X019550Y014875D01*
Y015175D01*
X019625Y015250D01*
X019850D01*
X019400Y015175D02*
X019325Y015250D01*
X019175D01*
X019100Y015175D01*
Y015100D01*
X019175Y015025D01*
X019250D01*
X019175D01*
X019100Y014950D01*
Y014875D01*
X019175Y014800D01*
X019325D01*
X019400Y014875D01*
X022450Y022750D02*
Y022375D01*
X022375Y022300D01*
X022225D01*
X022150Y022375D01*
Y022750D01*
X022000Y022300D02*
X021850D01*
X021925D01*
Y022750D01*
X022000Y022675D01*
X022550Y018600D02*
Y018225D01*
X022475Y018150D01*
X022325D01*
X022250Y018225D01*
Y018600D01*
X021800Y018150D02*
X022100D01*
X021800Y018450D01*
Y018525D01*
X021875Y018600D01*
X022025D01*
X022100Y018525D01*
X022650Y013850D02*
Y013475D01*
X022575Y013400D01*
X022425D01*
X022350Y013475D01*
Y013850D01*
X022200Y013775D02*
X022125Y013850D01*
X021975D01*
X021900Y013775D01*
Y013700D01*
X021975Y013625D01*
X022050D01*
X021975D01*
X021900Y013550D01*
Y013475D01*
X021975Y013400D01*
X022125D01*
X022200Y013475D01*
X012900Y028700D02*
X013275D01*
X013350Y028625D01*
Y028475D01*
X013275Y028400D01*
X012900D01*
Y027950D02*
Y028250D01*
X013125D01*
X013050Y028100D01*
Y028025D01*
X013125Y027950D01*
X013275D01*
X013350Y028025D01*
Y028175D01*
X013275Y028250D01*
X017000Y022850D02*
X016550D01*
Y022625D01*
X016625Y022550D01*
X016775D01*
X016850Y022625D01*
Y022850D01*
Y022700D02*
X017000Y022550D01*
Y022400D02*
Y022250D01*
Y022325D01*
X016550D01*
X016625Y022400D01*
X016550Y021725D02*
Y022025D01*
X016775D01*
X016700Y021875D01*
Y021800D01*
X016775Y021725D01*
X016925D01*
X017000Y021800D01*
Y021950D01*
X016925Y022025D01*
D101*
X020132Y023503D02*
D03*
X020132Y022597D02*
D03*
X020585Y019303D02*
D03*
X020585Y018397D02*
D03*
X020235Y014503D02*
D03*
X020235Y013597D02*
D03*
M02*
