G04 Layer_Color=65535*
%FSAX24Y24*%
%MOIN*%
G70*
G01*
G75*
%ADD24C,0.0100*%
%ADD56C,0.0060*%
%ADD57C,0.0098*%
%ADD58C,0.0236*%
%ADD59C,0.0050*%
%ADD60C,0.0079*%
%ADD61C,0.0080*%
D24*
X026850Y015800D02*
X027400D01*
Y018800D01*
X026850D02*
X027400D01*
X029750Y011550D02*
Y023050D01*
X026850Y011550D02*
X029750D01*
X026850Y023050D02*
X029750D01*
X026850Y011550D02*
Y023050D01*
X013800Y010150D02*
X020300D01*
X013800D02*
Y011650D01*
X020300D01*
Y010150D02*
Y011650D01*
X025650Y026800D02*
Y029700D01*
X019300D02*
X025650D01*
X019300Y026800D02*
Y029700D01*
Y026800D02*
X025650D01*
X023500D02*
Y027300D01*
X021500D02*
X023500D01*
X021500Y026800D02*
Y027300D01*
X026850Y027800D02*
X027350D01*
Y026300D02*
Y027800D01*
X026850Y026300D02*
X027350D01*
X026850Y024400D02*
Y029700D01*
X029750D01*
Y024400D02*
Y029700D01*
X026850Y024400D02*
X029750D01*
X010650Y023331D02*
Y029981D01*
X014950D01*
Y023331D02*
Y029981D01*
X010650Y023331D02*
X014950D01*
X012450Y019494D02*
Y022994D01*
X010200Y019494D02*
X012450D01*
X010200D02*
Y022994D01*
X012450D01*
D56*
X019118Y027250D02*
G03*
X019118Y027250I-001969J000000D01*
G01*
X024397Y025923D02*
Y026100D01*
X024003Y025923D02*
X024397D01*
X024003D02*
Y026100D01*
Y026494D02*
Y026671D01*
X024397D01*
Y026494D02*
Y026671D01*
X023197Y025923D02*
Y026100D01*
X022803Y025923D02*
X023197D01*
X022803D02*
Y026100D01*
Y026494D02*
Y026671D01*
X023197D01*
Y026494D02*
Y026671D01*
X025135Y026047D02*
Y026342D01*
X024465D02*
X025135D01*
X024465Y026047D02*
Y026342D01*
Y025358D02*
Y025653D01*
Y025358D02*
X025135D01*
Y025653D01*
X023935Y026041D02*
Y026336D01*
X023265D02*
X023935D01*
X023265Y026041D02*
Y026336D01*
Y025352D02*
Y025647D01*
Y025352D02*
X023935D01*
Y025647D01*
X021997Y025923D02*
Y026100D01*
X021603Y025923D02*
X021997D01*
X021603D02*
Y026100D01*
Y026494D02*
Y026671D01*
X021997D01*
Y026494D02*
Y026671D01*
X013747Y022947D02*
Y023124D01*
X013353D02*
X013747D01*
X013353Y022947D02*
Y023124D01*
Y022376D02*
Y022553D01*
Y022376D02*
X013747D01*
Y022553D01*
X014247Y022947D02*
Y023124D01*
X013853D02*
X014247D01*
X013853Y022947D02*
Y023124D01*
Y022376D02*
Y022553D01*
Y022376D02*
X014247D01*
Y022553D01*
X021952Y018335D02*
X022247D01*
X021952Y017665D02*
Y018335D01*
Y017665D02*
X022247D01*
X022641D02*
X022936D01*
Y018335D01*
X022641D02*
X022936D01*
X021952Y016435D02*
X022247D01*
X021952Y015765D02*
Y016435D01*
Y015765D02*
X022247D01*
X022641D02*
X022936D01*
Y016435D01*
X022641D02*
X022936D01*
X021908Y012635D02*
X022203D01*
X021908Y011965D02*
Y012635D01*
Y011965D02*
X022203D01*
X022597D02*
X022892D01*
Y012635D01*
X022597D02*
X022892D01*
X025103Y020515D02*
X025398D01*
Y021185D01*
X025103D02*
X025398D01*
X024414D02*
X024709D01*
X024414Y020515D02*
Y021185D01*
Y020515D02*
X024709D01*
X023352Y021185D02*
X023647D01*
X023352Y020515D02*
Y021185D01*
Y020515D02*
X023647D01*
X024041D02*
X024336D01*
Y021185D01*
X024041D02*
X024336D01*
X023408Y017335D02*
X023703D01*
X023408Y016665D02*
Y017335D01*
Y016665D02*
X023703D01*
X024097D02*
X024392D01*
Y017335D01*
X024097D02*
X024392D01*
X012870Y010747D02*
X013047D01*
X012870Y010353D02*
Y010747D01*
Y010353D02*
X013047D01*
X013441D02*
X013618D01*
Y010747D01*
X013441D02*
X013618D01*
X016835Y024888D02*
X017465D01*
X017150Y024573D02*
Y025203D01*
X015969Y027053D02*
X018331D01*
X015969Y027447D02*
X018331D01*
X017150D02*
Y027762D01*
Y026738D02*
Y027053D01*
X012803Y014147D02*
Y014324D01*
X013197D01*
Y014147D02*
Y014324D01*
Y013576D02*
Y013753D01*
X012803Y013576D02*
X013197D01*
X012803D02*
Y013753D01*
X010558Y015485D02*
X010853D01*
X010558Y014815D02*
Y015485D01*
Y014815D02*
X010853D01*
X011247D02*
X011542D01*
Y015485D01*
X011247D02*
X011542D01*
X011303Y018265D02*
X011598D01*
Y018935D01*
X011303D02*
X011598D01*
X010614D02*
X010909D01*
X010614Y018265D02*
Y018935D01*
Y018265D02*
X010909D01*
X016644Y013253D02*
X016821D01*
Y013647D01*
X016644D02*
X016821D01*
X016073D02*
X016250D01*
X016073Y013253D02*
Y013647D01*
Y013253D02*
X016250D01*
X016344Y019403D02*
X016521D01*
Y019797D01*
X016344D02*
X016521D01*
X015773D02*
X015950D01*
X015773Y019403D02*
Y019797D01*
Y019403D02*
X015950D01*
X013891Y012215D02*
X014186D01*
Y012885D01*
X013891D02*
X014186D01*
X013202D02*
X013497D01*
X013202Y012215D02*
Y012885D01*
Y012215D02*
X013497D01*
X022735Y026041D02*
Y026336D01*
X022065D02*
X022735D01*
X022065Y026041D02*
Y026336D01*
Y025352D02*
Y025647D01*
Y025352D02*
X022735D01*
Y025647D01*
X025203Y012915D02*
X025498D01*
Y013585D01*
X025203D02*
X025498D01*
X024514D02*
X024809D01*
X024514Y012915D02*
Y013585D01*
Y012915D02*
X024809D01*
X023452Y013585D02*
X023747D01*
X023452Y012915D02*
Y013585D01*
Y012915D02*
X023747D01*
X024141D02*
X024436D01*
Y013585D01*
X024141D02*
X024436D01*
X025191Y016665D02*
X025486D01*
Y017335D01*
X025191D02*
X025486D01*
X024502D02*
X024797D01*
X024502Y016665D02*
Y017335D01*
Y016665D02*
X024797D01*
X021958Y014535D02*
X022253D01*
X021958Y013865D02*
Y014535D01*
Y013865D02*
X022253D01*
X022647D02*
X022942D01*
Y014535D01*
X022647D02*
X022942D01*
X021958Y020235D02*
X022253D01*
X021958Y019565D02*
Y020235D01*
Y019565D02*
X022253D01*
X022647D02*
X022942D01*
Y020235D01*
X022647D02*
X022942D01*
X021958Y022085D02*
X022253D01*
X021958Y021415D02*
Y022085D01*
Y021415D02*
X022253D01*
X022647D02*
X022942D01*
Y022085D01*
X022647D02*
X022942D01*
X012965Y019602D02*
Y019897D01*
Y019602D02*
X013635D01*
Y019897D01*
Y020291D02*
Y020586D01*
X012965D02*
X013635D01*
X012965Y020291D02*
Y020586D01*
X013235Y022903D02*
Y023198D01*
X012565D02*
X013235D01*
X012565Y022903D02*
Y023198D01*
Y022214D02*
Y022509D01*
Y022214D02*
X013235D01*
Y022509D01*
X013247Y022085D02*
X013542D01*
Y021415D02*
Y022085D01*
X013247Y021415D02*
X013542D01*
X012558D02*
X012853D01*
X012558D02*
Y022085D01*
X012853D01*
X013247Y021335D02*
X013542D01*
Y020665D02*
Y021335D01*
X013247Y020665D02*
X013542D01*
X012558D02*
X012853D01*
X012558D02*
Y021335D01*
X012853D01*
X018247Y024785D02*
X018542D01*
Y024115D02*
Y024785D01*
X018247Y024115D02*
X018542D01*
X017558D02*
X017853D01*
X017558D02*
Y024785D01*
X017853D01*
X018247Y023985D02*
X018542D01*
Y023315D02*
Y023985D01*
X018247Y023315D02*
X018542D01*
X017558D02*
X017853D01*
X017558D02*
Y023985D01*
X017853D01*
D57*
X018249Y018724D02*
G03*
X018249Y018724I-000049J000000D01*
G01*
D58*
X017737Y017819D02*
G03*
X017737Y017819I-000118J000000D01*
G01*
D59*
X015200Y025000D02*
X015875D01*
X017450Y024100D02*
Y025000D01*
X016575D02*
X017450D01*
X015200Y024100D02*
X015875D01*
X016575D02*
X017450D01*
X015050Y024250D02*
X015200Y024100D01*
X015050Y024250D02*
Y024850D01*
X015200Y025000D01*
Y024000D02*
X015875D01*
X017450Y023100D02*
Y024000D01*
X016575D02*
X017450D01*
X015200Y023100D02*
X015875D01*
X016575D02*
X017450D01*
X015050Y023250D02*
X015200Y023100D01*
X015050Y023250D02*
Y023850D01*
X015200Y024000D01*
X024575Y011850D02*
X025250D01*
X023000D02*
Y012750D01*
Y011850D02*
X023875D01*
X024575Y012750D02*
X025250D01*
X023000D02*
X023875D01*
X025250D02*
X025400Y012600D01*
Y012000D02*
Y012600D01*
X025250Y011850D02*
X025400Y012000D01*
X024619Y013750D02*
X025294D01*
X023044D02*
Y014650D01*
Y013750D02*
X023919D01*
X024619Y014650D02*
X025294D01*
X023044D02*
X023919D01*
X025294D02*
X025444Y014500D01*
Y013900D02*
Y014500D01*
X025294Y013750D02*
X025444Y013900D01*
X024613Y015650D02*
X025288D01*
X023038D02*
Y016550D01*
Y015650D02*
X023913D01*
X024613Y016550D02*
X025288D01*
X023038D02*
X023913D01*
X025288D02*
X025438Y016400D01*
Y015800D02*
Y016400D01*
X025288Y015650D02*
X025438Y015800D01*
X024613Y017550D02*
X025288D01*
X023038D02*
Y018450D01*
Y017550D02*
X023913D01*
X024613Y018450D02*
X025288D01*
X023038D02*
X023913D01*
X025288D02*
X025438Y018300D01*
Y017700D02*
Y018300D01*
X025288Y017550D02*
X025438Y017700D01*
X024613Y019450D02*
X025288D01*
X023038D02*
Y020350D01*
Y019450D02*
X023913D01*
X024613Y020350D02*
X025288D01*
X023038D02*
X023913D01*
X025288D02*
X025438Y020200D01*
Y019600D02*
Y020200D01*
X025288Y019450D02*
X025438Y019600D01*
X024613Y021300D02*
X025288D01*
X023038D02*
Y022200D01*
Y021300D02*
X023913D01*
X024613Y022200D02*
X025288D01*
X023038D02*
X023913D01*
X025288D02*
X025438Y022050D01*
Y021450D02*
Y022050D01*
X025288Y021300D02*
X025438Y021450D01*
D60*
X013731Y022171D02*
X015306D01*
X013731Y020596D02*
X015109D01*
X013731D02*
Y022171D01*
X015306Y020793D02*
Y022171D01*
X015109Y020596D02*
X015306Y020793D01*
X014587Y018213D02*
X018013D01*
X014587Y014787D02*
X018013D01*
Y018213D01*
X014587Y014787D02*
Y018213D01*
D61*
X021300Y018550D02*
Y019000D01*
X021525D01*
X021600Y018925D01*
Y018775D01*
X021525Y018700D01*
X021300D01*
X021450D02*
X021600Y018550D01*
X022050D02*
X021750D01*
X022050Y018850D01*
Y018925D01*
X021975Y019000D01*
X021825D01*
X021750Y018925D01*
X022200Y019000D02*
X022500D01*
Y018925D01*
X022200Y018625D01*
Y018550D01*
X020550Y015600D02*
Y016050D01*
X020775D01*
X020850Y015975D01*
Y015825D01*
X020775Y015750D01*
X020550D01*
X020700D02*
X020850Y015600D01*
X021300D02*
X021000D01*
X021300Y015900D01*
Y015975D01*
X021225Y016050D01*
X021075D01*
X021000Y015975D01*
X021750Y016050D02*
X021600Y015975D01*
X021450Y015825D01*
Y015675D01*
X021525Y015600D01*
X021675D01*
X021750Y015675D01*
Y015750D01*
X021675Y015825D01*
X021450D01*
X020500Y012300D02*
Y012750D01*
X020725D01*
X020800Y012675D01*
Y012525D01*
X020725Y012450D01*
X020500D01*
X020650D02*
X020800Y012300D01*
X021250D02*
X020950D01*
X021250Y012600D01*
Y012675D01*
X021175Y012750D01*
X021025D01*
X020950Y012675D01*
X021625Y012300D02*
Y012750D01*
X021400Y012525D01*
X021700D01*
X025550Y020550D02*
Y021000D01*
X025775D01*
X025850Y020925D01*
Y020775D01*
X025775Y020700D01*
X025550D01*
X025700D02*
X025850Y020550D01*
X026300D02*
X026000D01*
X026300Y020850D01*
Y020925D01*
X026225Y021000D01*
X026075D01*
X026000Y020925D01*
X026450D02*
X026525Y021000D01*
X026675D01*
X026750Y020925D01*
Y020850D01*
X026675Y020775D01*
X026600D01*
X026675D01*
X026750Y020700D01*
Y020625D01*
X026675Y020550D01*
X026525D01*
X026450Y020625D01*
X020700Y026475D02*
X020625Y026550D01*
X020475D01*
X020400Y026475D01*
Y026175D01*
X020475Y026100D01*
X020625D01*
X020700Y026175D01*
X021150Y026100D02*
X020850D01*
X021150Y026400D01*
Y026475D01*
X021075Y026550D01*
X020925D01*
X020850Y026475D01*
X021300Y026100D02*
X021450D01*
X021375D01*
Y026550D01*
X021300Y026475D01*
X023175Y024900D02*
X023250Y024975D01*
Y025125D01*
X023175Y025200D01*
X022875D01*
X022800Y025125D01*
Y024975D01*
X022875Y024900D01*
X022800Y024450D02*
Y024750D01*
X023100Y024450D01*
X023175D01*
X023250Y024525D01*
Y024675D01*
X023175Y024750D01*
Y024300D02*
X023250Y024225D01*
Y024075D01*
X023175Y024000D01*
X022875D01*
X022800Y024075D01*
Y024225D01*
X022875Y024300D01*
X023175D01*
X024525Y024850D02*
X024600Y024925D01*
Y025075D01*
X024525Y025150D01*
X024225D01*
X024150Y025075D01*
Y024925D01*
X024225Y024850D01*
X024150Y024700D02*
Y024550D01*
Y024625D01*
X024600D01*
X024525Y024700D01*
Y024325D02*
X024600Y024250D01*
Y024100D01*
X024525Y024025D01*
X024450D01*
X024375Y024100D01*
X024300Y024025D01*
X024225D01*
X024150Y024100D01*
Y024250D01*
X024225Y024325D01*
X024300D01*
X024375Y024250D01*
X024450Y024325D01*
X024525D01*
X024375Y024250D02*
Y024100D01*
X021950Y020650D02*
Y021100D01*
X022175D01*
X022250Y021025D01*
Y020875D01*
X022175Y020800D01*
X021950D01*
X022100D02*
X022250Y020650D01*
X022700D02*
X022400D01*
X022700Y020950D01*
Y021025D01*
X022625Y021100D01*
X022475D01*
X022400Y021025D01*
X023150Y020650D02*
X022850D01*
X023150Y020950D01*
Y021025D01*
X023075Y021100D01*
X022925D01*
X022850Y021025D01*
X022000Y016800D02*
Y017250D01*
X022225D01*
X022300Y017175D01*
Y017025D01*
X022225Y016950D01*
X022000D01*
X022150D02*
X022300Y016800D01*
X022750D02*
X022450D01*
X022750Y017100D01*
Y017175D01*
X022675Y017250D01*
X022525D01*
X022450Y017175D01*
X022900D02*
X022975Y017250D01*
X023125D01*
X023200Y017175D01*
Y016875D01*
X023125Y016800D01*
X022975D01*
X022900Y016875D01*
Y017175D01*
X023900Y022850D02*
Y022400D01*
X024125D01*
X024200Y022475D01*
Y022775D01*
X024125Y022850D01*
X023900D01*
X024350Y022475D02*
X024425Y022400D01*
X024575D01*
X024650Y022475D01*
Y022775D01*
X024575Y022850D01*
X024425D01*
X024350Y022775D01*
Y022700D01*
X024425Y022625D01*
X024650D01*
X025550Y019500D02*
Y019050D01*
X025775D01*
X025850Y019125D01*
Y019425D01*
X025775Y019500D01*
X025550D01*
X026000Y019425D02*
X026075Y019500D01*
X026225D01*
X026300Y019425D01*
Y019350D01*
X026225Y019275D01*
X026300Y019200D01*
Y019125D01*
X026225Y019050D01*
X026075D01*
X026000Y019125D01*
Y019200D01*
X026075Y019275D01*
X026000Y019350D01*
Y019425D01*
X026075Y019275D02*
X026225D01*
X025650Y018550D02*
Y018100D01*
X025875D01*
X025950Y018175D01*
Y018475D01*
X025875Y018550D01*
X025650D01*
X026100D02*
X026400D01*
Y018475D01*
X026100Y018175D01*
Y018100D01*
X025650Y016300D02*
Y015850D01*
X025875D01*
X025950Y015925D01*
Y016225D01*
X025875Y016300D01*
X025650D01*
X026400D02*
X026250Y016225D01*
X026100Y016075D01*
Y015925D01*
X026175Y015850D01*
X026325D01*
X026400Y015925D01*
Y016000D01*
X026325Y016075D01*
X026100D01*
X025650Y015000D02*
Y014550D01*
X025875D01*
X025950Y014625D01*
Y014925D01*
X025875Y015000D01*
X025650D01*
X026400D02*
X026100D01*
Y014775D01*
X026250Y014850D01*
X026325D01*
X026400Y014775D01*
Y014625D01*
X026325Y014550D01*
X026175D01*
X026100Y014625D01*
X025650Y012500D02*
Y012050D01*
X025875D01*
X025950Y012125D01*
Y012425D01*
X025875Y012500D01*
X025650D01*
X026325Y012050D02*
Y012500D01*
X026100Y012275D01*
X026400D01*
X020850Y011050D02*
X020700D01*
X020775D01*
Y010675D01*
X020700Y010600D01*
X020625D01*
X020550Y010675D01*
X021300Y010600D02*
X021000D01*
X021300Y010900D01*
Y010975D01*
X021225Y011050D01*
X021075D01*
X021000Y010975D01*
X020350Y029500D02*
X020200D01*
X020275D01*
Y029125D01*
X020200Y029050D01*
X020125D01*
X020050Y029125D01*
X020800Y029500D02*
X020500D01*
Y029275D01*
X020650Y029350D01*
X020725D01*
X020800Y029275D01*
Y029125D01*
X020725Y029050D01*
X020575D01*
X020500Y029125D01*
X027450Y025100D02*
X027300D01*
X027375D01*
Y024725D01*
X027300Y024650D01*
X027225D01*
X027150Y024725D01*
X027600Y025025D02*
X027675Y025100D01*
X027825D01*
X027900Y025025D01*
Y024950D01*
X027825Y024875D01*
X027750D01*
X027825D01*
X027900Y024800D01*
Y024725D01*
X027825Y024650D01*
X027675D01*
X027600Y024725D01*
X012897Y011000D02*
Y011450D01*
X013122D01*
X013197Y011375D01*
Y011225D01*
X013122Y011150D01*
X012897D01*
X013047D02*
X013197Y011000D01*
X013347D02*
X013497D01*
X013422D01*
Y011450D01*
X013347Y011375D01*
X018600Y029475D02*
X018525Y029550D01*
X018375D01*
X018300Y029475D01*
Y029175D01*
X018375Y029100D01*
X018525D01*
X018600Y029175D01*
X018750Y029475D02*
X018825Y029550D01*
X018975D01*
X019050Y029475D01*
Y029400D01*
X018975Y029325D01*
X019050Y029250D01*
Y029175D01*
X018975Y029100D01*
X018825D01*
X018750Y029175D01*
Y029250D01*
X018825Y029325D01*
X018750Y029400D01*
Y029475D01*
X018825Y029325D02*
X018975D01*
X010400Y021050D02*
Y020900D01*
Y020975D01*
X010775D01*
X010850Y020900D01*
Y020825D01*
X010775Y020750D01*
X010400Y021500D02*
X010475Y021350D01*
X010625Y021200D01*
X010775D01*
X010850Y021275D01*
Y021425D01*
X010775Y021500D01*
X010700D01*
X010625Y021425D01*
Y021200D01*
X013750Y014175D02*
X013675Y014250D01*
X013525D01*
X013450Y014175D01*
Y013875D01*
X013525Y013800D01*
X013675D01*
X013750Y013875D01*
X013900Y013800D02*
X014050D01*
X013975D01*
Y014250D01*
X013900Y014175D01*
X014575Y014250D02*
X014425Y014175D01*
X014275Y014025D01*
Y013875D01*
X014350Y013800D01*
X014500D01*
X014575Y013875D01*
Y013950D01*
X014500Y014025D01*
X014275D01*
X012200Y015225D02*
X012125Y015300D01*
X011975D01*
X011900Y015225D01*
Y014925D01*
X011975Y014850D01*
X012125D01*
X012200Y014925D01*
X012350Y014850D02*
X012500D01*
X012425D01*
Y015300D01*
X012350Y015225D01*
X013025Y014850D02*
X012725D01*
X013025Y015150D01*
Y015225D01*
X012950Y015300D01*
X012800D01*
X012725Y015225D01*
X012600Y018725D02*
X012525Y018800D01*
X012375D01*
X012300Y018725D01*
Y018425D01*
X012375Y018350D01*
X012525D01*
X012600Y018425D01*
X012750Y018350D02*
X012900D01*
X012825D01*
Y018800D01*
X012750Y018725D01*
X013125D02*
X013200Y018800D01*
X013350D01*
X013425Y018725D01*
Y018650D01*
X013350Y018575D01*
X013275D01*
X013350D01*
X013425Y018500D01*
Y018425D01*
X013350Y018350D01*
X013200D01*
X013125Y018425D01*
X016150Y012725D02*
X016075Y012800D01*
X015925D01*
X015850Y012725D01*
Y012425D01*
X015925Y012350D01*
X016075D01*
X016150Y012425D01*
X016300Y012350D02*
X016450D01*
X016375D01*
Y012800D01*
X016300Y012725D01*
X016900Y012350D02*
Y012800D01*
X016675Y012575D01*
X016975D01*
X016450Y020375D02*
X016375Y020450D01*
X016225D01*
X016150Y020375D01*
Y020075D01*
X016225Y020000D01*
X016375D01*
X016450Y020075D01*
X016600Y020000D02*
X016750D01*
X016675D01*
Y020450D01*
X016600Y020375D01*
X017275Y020450D02*
X016975D01*
Y020225D01*
X017125Y020300D01*
X017200D01*
X017275Y020225D01*
Y020075D01*
X017200Y020000D01*
X017050D01*
X016975Y020075D01*
X027400Y022650D02*
X027250D01*
X027325D01*
Y022275D01*
X027250Y022200D01*
X027175D01*
X027100Y022275D01*
X027550Y022200D02*
X027700D01*
X027625D01*
Y022650D01*
X027550Y022575D01*
X013294Y013000D02*
Y013450D01*
X013519D01*
X013594Y013375D01*
Y013225D01*
X013519Y013150D01*
X013294D01*
X013444D02*
X013594Y013000D01*
X014044D02*
X013744D01*
X014044Y013300D01*
Y013375D01*
X013969Y013450D01*
X013819D01*
X013744Y013375D01*
X025350Y026100D02*
X025800D01*
Y025875D01*
X025725Y025800D01*
X025575D01*
X025500Y025875D01*
Y026100D01*
Y025950D02*
X025350Y025800D01*
X025800Y025650D02*
Y025350D01*
X025725D01*
X025425Y025650D01*
X025350D01*
X023450Y025150D02*
X023900D01*
Y024925D01*
X023825Y024850D01*
X023675D01*
X023600Y024925D01*
Y025150D01*
Y025000D02*
X023450Y024850D01*
X023825Y024700D02*
X023900Y024625D01*
Y024475D01*
X023825Y024400D01*
X023750D01*
X023675Y024475D01*
X023600Y024400D01*
X023525D01*
X023450Y024475D01*
Y024625D01*
X023525Y024700D01*
X023600D01*
X023675Y024625D01*
X023750Y024700D01*
X023825D01*
X023675Y024625D02*
Y024475D01*
X022050Y025150D02*
X022500D01*
Y024925D01*
X022425Y024850D01*
X022275D01*
X022200Y024925D01*
Y025150D01*
Y025000D02*
X022050Y024850D01*
Y024700D02*
Y024550D01*
Y024625D01*
X022500D01*
X022425Y024700D01*
X022050Y024325D02*
Y024175D01*
Y024250D01*
X022500D01*
X022425Y024325D01*
X025700Y013500D02*
Y013950D01*
X025925D01*
X026000Y013875D01*
Y013725D01*
X025925Y013650D01*
X025700D01*
X025850D02*
X026000Y013500D01*
X026150D02*
X026300D01*
X026225D01*
Y013950D01*
X026150Y013875D01*
X026825Y013950D02*
X026675Y013875D01*
X026525Y013725D01*
Y013575D01*
X026600Y013500D01*
X026750D01*
X026825Y013575D01*
Y013650D01*
X026750Y013725D01*
X026525D01*
X022150Y013000D02*
Y013450D01*
X022375D01*
X022450Y013375D01*
Y013225D01*
X022375Y013150D01*
X022150D01*
X022300D02*
X022450Y013000D01*
X022600D02*
X022750D01*
X022675D01*
Y013450D01*
X022600Y013375D01*
X022975Y013450D02*
X023275D01*
Y013375D01*
X022975Y013075D01*
Y013000D01*
X025700Y016700D02*
Y017150D01*
X025925D01*
X026000Y017075D01*
Y016925D01*
X025925Y016850D01*
X025700D01*
X025850D02*
X026000Y016700D01*
X026150D02*
X026300D01*
X026225D01*
Y017150D01*
X026150Y017075D01*
X026525D02*
X026600Y017150D01*
X026750D01*
X026825Y017075D01*
Y017000D01*
X026750Y016925D01*
X026825Y016850D01*
Y016775D01*
X026750Y016700D01*
X026600D01*
X026525Y016775D01*
Y016850D01*
X026600Y016925D01*
X026525Y017000D01*
Y017075D01*
X026600Y016925D02*
X026750D01*
X020550Y013950D02*
Y014400D01*
X020775D01*
X020850Y014325D01*
Y014175D01*
X020775Y014100D01*
X020550D01*
X020700D02*
X020850Y013950D01*
X021300D02*
X021000D01*
X021300Y014250D01*
Y014325D01*
X021225Y014400D01*
X021075D01*
X021000Y014325D01*
X021750Y014400D02*
X021450D01*
Y014175D01*
X021600Y014250D01*
X021675D01*
X021750Y014175D01*
Y014025D01*
X021675Y013950D01*
X021525D01*
X021450Y014025D01*
X020500Y019700D02*
Y020150D01*
X020725D01*
X020800Y020075D01*
Y019925D01*
X020725Y019850D01*
X020500D01*
X020650D02*
X020800Y019700D01*
X021250D02*
X020950D01*
X021250Y020000D01*
Y020075D01*
X021175Y020150D01*
X021025D01*
X020950Y020075D01*
X021400D02*
X021475Y020150D01*
X021625D01*
X021700Y020075D01*
Y020000D01*
X021625Y019925D01*
X021700Y019850D01*
Y019775D01*
X021625Y019700D01*
X021475D01*
X021400Y019775D01*
Y019850D01*
X021475Y019925D01*
X021400Y020000D01*
Y020075D01*
X021475Y019925D02*
X021625D01*
X020550Y021550D02*
Y022000D01*
X020775D01*
X020850Y021925D01*
Y021775D01*
X020775Y021700D01*
X020550D01*
X020700D02*
X020850Y021550D01*
X021300D02*
X021000D01*
X021300Y021850D01*
Y021925D01*
X021225Y022000D01*
X021075D01*
X021000Y021925D01*
X021450Y021625D02*
X021525Y021550D01*
X021675D01*
X021750Y021625D01*
Y021925D01*
X021675Y022000D01*
X021525D01*
X021450Y021925D01*
Y021850D01*
X021525Y021775D01*
X021750D01*
X011300Y012958D02*
X011225Y013033D01*
X011075D01*
X011000Y012958D01*
Y012883D01*
X011075Y012808D01*
X011225D01*
X011300Y012733D01*
Y012658D01*
X011225Y012583D01*
X011075D01*
X011000Y012658D01*
X011450Y012583D02*
X011600D01*
X011525D01*
Y013033D01*
X011450Y012958D01*
X011950Y017650D02*
X012250D01*
X012100D01*
Y017200D01*
X012400D02*
X012550D01*
X012475D01*
Y017650D01*
X012400Y017575D01*
X015850Y016850D02*
Y016475D01*
X015925Y016400D01*
X016075D01*
X016150Y016475D01*
Y016850D01*
X016525Y016400D02*
Y016850D01*
X016300Y016625D01*
X016600D01*
X015500Y029681D02*
X015350D01*
X015425D01*
Y029306D01*
X015350Y029231D01*
X015275D01*
X015200Y029306D01*
X015875Y029231D02*
Y029681D01*
X015650Y029456D01*
X015950D01*
X014200Y019575D02*
X014125Y019650D01*
X013975D01*
X013900Y019575D01*
Y019275D01*
X013975Y019200D01*
X014125D01*
X014200Y019275D01*
X014650Y019200D02*
X014350D01*
X014650Y019500D01*
Y019575D01*
X014575Y019650D01*
X014425D01*
X014350Y019575D01*
X015100Y019200D02*
X014800D01*
X015100Y019500D01*
Y019575D01*
X015025Y019650D01*
X014875D01*
X014800Y019575D01*
X011150Y024025D02*
X011075Y024100D01*
X010925D01*
X010850Y024025D01*
Y023725D01*
X010925Y023650D01*
X011075D01*
X011150Y023725D01*
X011600Y023650D02*
X011300D01*
X011600Y023950D01*
Y024025D01*
X011525Y024100D01*
X011375D01*
X011300Y024025D01*
X011750D02*
X011825Y024100D01*
X011975D01*
X012050Y024025D01*
Y023950D01*
X011975Y023875D01*
X011900D01*
X011975D01*
X012050Y023800D01*
Y023725D01*
X011975Y023650D01*
X011825D01*
X011750Y023725D01*
X014700Y022775D02*
X014625Y022850D01*
X014475D01*
X014400Y022775D01*
Y022475D01*
X014475Y022400D01*
X014625D01*
X014700Y022475D01*
X015150Y022400D02*
X014850D01*
X015150Y022700D01*
Y022775D01*
X015075Y022850D01*
X014925D01*
X014850Y022775D01*
X015525Y022400D02*
Y022850D01*
X015300Y022625D01*
X015600D01*
X014175Y023950D02*
X014100Y023875D01*
Y023725D01*
X014175Y023650D01*
X014475D01*
X014550Y023725D01*
Y023875D01*
X014475Y023950D01*
X014550Y024400D02*
Y024100D01*
X014250Y024400D01*
X014175D01*
X014100Y024325D01*
Y024175D01*
X014175Y024100D01*
X014100Y024850D02*
Y024550D01*
X014325D01*
X014250Y024700D01*
Y024775D01*
X014325Y024850D01*
X014475D01*
X014550Y024775D01*
Y024625D01*
X014475Y024550D01*
X015800Y022950D02*
Y022500D01*
X016025D01*
X016100Y022575D01*
Y022875D01*
X016025Y022950D01*
X015800D01*
X016250Y022500D02*
X016400D01*
X016325D01*
Y022950D01*
X016250Y022875D01*
X016625D02*
X016700Y022950D01*
X016850D01*
X016925Y022875D01*
Y022575D01*
X016850Y022500D01*
X016700D01*
X016625Y022575D01*
Y022875D01*
X015062Y025600D02*
Y025150D01*
X015287D01*
X015362Y025225D01*
Y025525D01*
X015287Y025600D01*
X015062D01*
X015512Y025150D02*
X015662D01*
X015587D01*
Y025600D01*
X015512Y025525D01*
X015887Y025150D02*
X016036D01*
X015962D01*
Y025600D01*
X015887Y025525D01*
X011200Y021450D02*
Y021900D01*
X011425D01*
X011500Y021825D01*
Y021675D01*
X011425Y021600D01*
X011200D01*
X011350D02*
X011500Y021450D01*
X011650D02*
X011800D01*
X011725D01*
Y021900D01*
X011650Y021825D01*
X012025D02*
X012100Y021900D01*
X012250D01*
X012325Y021825D01*
Y021750D01*
X012250Y021675D01*
X012175D01*
X012250D01*
X012325Y021600D01*
Y021525D01*
X012250Y021450D01*
X012100D01*
X012025Y021525D01*
X011100Y020750D02*
Y021200D01*
X011325D01*
X011400Y021125D01*
Y020975D01*
X011325Y020900D01*
X011100D01*
X011250D02*
X011400Y020750D01*
X011550D02*
X011700D01*
X011625D01*
Y021200D01*
X011550Y021125D01*
X012150Y020750D02*
Y021200D01*
X011925Y020975D01*
X012225D01*
X019600Y024150D02*
Y024600D01*
X019825D01*
X019900Y024525D01*
Y024375D01*
X019825Y024300D01*
X019600D01*
X019750D02*
X019900Y024150D01*
X020050Y024525D02*
X020125Y024600D01*
X020275D01*
X020350Y024525D01*
Y024450D01*
X020275Y024375D01*
X020200D01*
X020275D01*
X020350Y024300D01*
Y024225D01*
X020275Y024150D01*
X020125D01*
X020050Y024225D01*
X020500Y024150D02*
X020650D01*
X020575D01*
Y024600D01*
X020500Y024525D01*
X018756Y023350D02*
Y023800D01*
X018981D01*
X019056Y023725D01*
Y023575D01*
X018981Y023500D01*
X018756D01*
X018906D02*
X019056Y023350D01*
X019206Y023725D02*
X019281Y023800D01*
X019431D01*
X019506Y023725D01*
Y023650D01*
X019431Y023575D01*
X019356D01*
X019431D01*
X019506Y023500D01*
Y023425D01*
X019431Y023350D01*
X019281D01*
X019206Y023425D01*
X019956Y023350D02*
X019656D01*
X019956Y023650D01*
Y023725D01*
X019881Y023800D01*
X019731D01*
X019656Y023725D01*
X016000Y022250D02*
X015625D01*
X015550Y022175D01*
Y022025D01*
X015625Y021950D01*
X016000D01*
Y021500D02*
X015925Y021650D01*
X015775Y021800D01*
X015625D01*
X015550Y021725D01*
Y021575D01*
X015625Y021500D01*
X015700D01*
X015775Y021575D01*
Y021800D01*
M02*
