G04 Layer_Color=8388736*
%FSAX24Y24*%
%MOIN*%
G70*
G01*
G75*
%ADD62R,0.0631X0.0789*%
G04:AMPARAMS|DCode=63|XSize=76.9mil|YSize=67.1mil|CornerRadius=11.4mil|HoleSize=0mil|Usage=FLASHONLY|Rotation=180.000|XOffset=0mil|YOffset=0mil|HoleType=Round|Shape=RoundedRectangle|*
%AMROUNDEDRECTD63*
21,1,0.0769,0.0443,0,0,180.0*
21,1,0.0541,0.0671,0,0,180.0*
1,1,0.0228,-0.0271,0.0221*
1,1,0.0228,0.0271,0.0221*
1,1,0.0228,0.0271,-0.0221*
1,1,0.0228,-0.0271,-0.0221*
%
%ADD63ROUNDEDRECTD63*%
%ADD64R,0.0926X0.0926*%
%ADD65R,0.0375X0.0198*%
%ADD66O,0.0198X0.0375*%
%ADD67R,0.0198X0.0375*%
%ADD68R,0.0316X0.0277*%
%ADD69R,0.0434X0.0395*%
%ADD70R,0.0395X0.0434*%
%ADD71R,0.0277X0.0316*%
%ADD72O,0.0277X0.0769*%
%ADD73O,0.0769X0.0277*%
%ADD74R,0.0631X0.0907*%
%ADD75R,0.0612X0.0257*%
%ADD76C,0.0830*%
%ADD77R,0.0830X0.0830*%
%ADD78R,0.0830X0.0830*%
%ADD79R,0.1480X0.1480*%
%ADD80R,0.1580X0.1580*%
%ADD81C,0.0867*%
G04:AMPARAMS|DCode=82|XSize=86.7mil|YSize=86.7mil|CornerRadius=13.8mil|HoleSize=0mil|Usage=FLASHONLY|Rotation=90.000|XOffset=0mil|YOffset=0mil|HoleType=Round|Shape=RoundedRectangle|*
%AMROUNDEDRECTD82*
21,1,0.0867,0.0591,0,0,90.0*
21,1,0.0591,0.0867,0,0,90.0*
1,1,0.0277,0.0295,0.0295*
1,1,0.0277,0.0295,-0.0295*
1,1,0.0277,-0.0295,-0.0295*
1,1,0.0277,-0.0295,0.0295*
%
%ADD82ROUNDEDRECTD82*%
%ADD83R,0.0671X0.0671*%
%ADD84R,0.0572X0.0572*%
%ADD85C,0.0380*%
%ADD86C,0.0580*%
D62*
X010605Y016000D02*
D03*
X011550Y017732D02*
D03*
Y016000D02*
D03*
X010605Y017732D02*
D03*
D63*
X016988Y024550D02*
D03*
X015512D02*
D03*
X016988Y023550D02*
D03*
X015512D02*
D03*
X023462Y012300D02*
D03*
X024938D02*
D03*
X023506Y014200D02*
D03*
X024982D02*
D03*
X023500Y016100D02*
D03*
X024976D02*
D03*
X023500Y018000D02*
D03*
X024976D02*
D03*
X023500Y019900D02*
D03*
X024976D02*
D03*
X023500Y021750D02*
D03*
X024976D02*
D03*
D64*
X014519Y021384D02*
D03*
D65*
X015237Y021768D02*
D03*
Y021512D02*
D03*
Y021256D02*
D03*
Y021000D02*
D03*
X013800D02*
D03*
Y021256D02*
D03*
Y021512D02*
D03*
Y021768D02*
D03*
D66*
X014902Y020665D02*
D03*
D67*
X014646D02*
D03*
X014391D02*
D03*
X014135D02*
D03*
Y022102D02*
D03*
X014391D02*
D03*
X014646D02*
D03*
X014902D02*
D03*
D68*
X024200Y026100D02*
D03*
Y026494D02*
D03*
X023000Y026100D02*
D03*
Y026494D02*
D03*
X021800Y026100D02*
D03*
Y026494D02*
D03*
X013550Y022947D02*
D03*
Y022553D02*
D03*
X014050Y022947D02*
D03*
Y022553D02*
D03*
X013000Y014147D02*
D03*
Y013753D02*
D03*
D69*
X024800Y026106D02*
D03*
Y025594D02*
D03*
X023600Y026100D02*
D03*
Y025588D02*
D03*
X022400Y026100D02*
D03*
Y025588D02*
D03*
X013300Y019838D02*
D03*
Y020350D02*
D03*
X012900Y022962D02*
D03*
Y022450D02*
D03*
D70*
X022188Y018000D02*
D03*
X022700D02*
D03*
X022188Y016100D02*
D03*
X022700D02*
D03*
X022144Y012300D02*
D03*
X022656D02*
D03*
X025162Y020850D02*
D03*
X024650D02*
D03*
X023588D02*
D03*
X024100D02*
D03*
X023644Y017000D02*
D03*
X024156D02*
D03*
X010794Y015150D02*
D03*
X011306D02*
D03*
X011362Y018600D02*
D03*
X010850D02*
D03*
X013950Y012550D02*
D03*
X013438D02*
D03*
X025262Y013250D02*
D03*
X024750D02*
D03*
X023688D02*
D03*
X024200D02*
D03*
X025250Y017000D02*
D03*
X024738D02*
D03*
X022194Y014200D02*
D03*
X022706D02*
D03*
X022194Y019900D02*
D03*
X022706D02*
D03*
X022194Y021750D02*
D03*
X022706D02*
D03*
X013306D02*
D03*
X012794D02*
D03*
X013306Y021000D02*
D03*
X012794D02*
D03*
X018306Y024450D02*
D03*
X017794D02*
D03*
X018306Y023650D02*
D03*
X017794D02*
D03*
D71*
X013047Y010550D02*
D03*
X013441D02*
D03*
X016644Y013450D02*
D03*
X016250D02*
D03*
X016344Y019600D02*
D03*
X015950D02*
D03*
D72*
X017875Y018724D02*
D03*
X017560D02*
D03*
X017245D02*
D03*
X016930D02*
D03*
X016615D02*
D03*
X016300D02*
D03*
X015985D02*
D03*
X015670D02*
D03*
X015355D02*
D03*
X015040D02*
D03*
X014725D02*
D03*
Y014276D02*
D03*
X015040D02*
D03*
X015355D02*
D03*
X015670D02*
D03*
X015985D02*
D03*
X016300D02*
D03*
X016615D02*
D03*
X016930D02*
D03*
X017245D02*
D03*
X017560D02*
D03*
X017875D02*
D03*
D73*
X014076Y018075D02*
D03*
Y017760D02*
D03*
Y017445D02*
D03*
Y017130D02*
D03*
Y016815D02*
D03*
Y016500D02*
D03*
Y016185D02*
D03*
Y015870D02*
D03*
Y015555D02*
D03*
Y015240D02*
D03*
Y014925D02*
D03*
X018524D02*
D03*
Y015240D02*
D03*
Y015555D02*
D03*
Y015870D02*
D03*
Y016185D02*
D03*
Y016500D02*
D03*
Y016815D02*
D03*
Y017130D02*
D03*
Y017445D02*
D03*
Y017760D02*
D03*
Y018075D02*
D03*
D74*
X010600Y010700D02*
D03*
X012372D02*
D03*
X010600Y014283D02*
D03*
X012372D02*
D03*
D75*
X011950Y020732D02*
D03*
Y020988D02*
D03*
Y021756D02*
D03*
Y021500D02*
D03*
Y021244D02*
D03*
D76*
X028350Y020800D02*
D03*
Y016800D02*
D03*
Y015800D02*
D03*
Y018800D02*
D03*
Y019800D02*
D03*
Y013800D02*
D03*
Y017800D02*
D03*
Y014800D02*
D03*
Y021800D02*
D03*
X015550Y010900D02*
D03*
X016550D02*
D03*
X018550D02*
D03*
X017550D02*
D03*
X014550D02*
D03*
X022500Y028300D02*
D03*
X023500D02*
D03*
X021500D02*
D03*
X020500D02*
D03*
X028350Y028550D02*
D03*
Y026550D02*
D03*
Y027550D02*
D03*
D77*
Y012800D02*
D03*
Y025550D02*
D03*
D78*
X019550Y010900D02*
D03*
X024500Y028300D02*
D03*
D79*
X013000Y026512D02*
D03*
X011150Y025331D02*
D03*
D80*
X013000Y024150D02*
D03*
D81*
X017150Y028234D02*
D03*
D82*
Y026266D02*
D03*
D83*
X010887Y019866D02*
D03*
Y022622D02*
D03*
D84*
X011950Y022228D02*
D03*
Y020260D02*
D03*
D85*
X012400Y022650D02*
D03*
X015050Y015050D02*
D03*
X015550Y015300D02*
D03*
X015900Y015650D02*
D03*
X014725Y013175D02*
D03*
X013000Y015900D02*
D03*
X013250Y015550D02*
D03*
X013450Y015250D02*
D03*
X017450Y017450D02*
D03*
X017050Y017750D02*
D03*
X020250Y015550D02*
D03*
X019900Y015850D02*
D03*
X024200Y027050D02*
D03*
X023000D02*
D03*
X021800D02*
D03*
X025750Y017600D02*
D03*
X016100Y026250D02*
D03*
X011000Y021750D02*
D03*
X014950Y020100D02*
D03*
X018300Y018900D02*
D03*
X018050Y019450D02*
D03*
X015756Y021256D02*
D03*
X020650Y022400D02*
D03*
X020800Y018200D02*
D03*
X023700Y013650D02*
D03*
X023300Y017400D02*
D03*
X021821Y016290D02*
D03*
X021750Y016650D02*
D03*
X021700Y020850D02*
D03*
X025800Y016100D02*
D03*
X024950Y011500D02*
D03*
X022950Y011100D02*
D03*
X022450D02*
D03*
X016500Y012950D02*
D03*
X012410Y016490D02*
D03*
X012700Y016800D02*
D03*
X015550Y012250D02*
D03*
Y020650D02*
D03*
X024200Y025550D02*
D03*
X023000D02*
D03*
X021800D02*
D03*
X011850Y015150D02*
D03*
X017250Y015250D02*
D03*
X024450Y016650D02*
D03*
X024500Y013550D02*
D03*
X024375Y020850D02*
D03*
X012150Y016200D02*
D03*
X017150Y013450D02*
D03*
X026450Y014550D02*
D03*
X023400Y020600D02*
D03*
X022400Y020500D02*
D03*
X016600Y011800D02*
D03*
X010850Y019100D02*
D03*
X013500Y011150D02*
D03*
X013700Y022150D02*
D03*
D86*
X017350Y022850D02*
D03*
X025750Y021700D02*
D03*
X026450Y016950D02*
D03*
X026050Y022550D02*
D03*
X026300Y013250D02*
D03*
X011950Y018600D02*
D03*
X020650Y011850D02*
D03*
X012150Y027700D02*
D03*
X011050D02*
D03*
X012150Y028750D02*
D03*
X011050D02*
D03*
X014100Y019900D02*
D03*
X026400Y019550D02*
D03*
X018850Y024600D02*
D03*
X011078Y016878D02*
D03*
X010850Y013450D02*
D03*
M02*
