G04 Layer_Physical_Order=1*
G04 Layer_Color=255*
%FSAX24Y24*%
%MOIN*%
G70*
G01*
G75*
%ADD10R,0.0118X0.0295*%
%ADD11R,0.0295X0.0118*%
G04:AMPARAMS|DCode=12|XSize=11.8mil|YSize=29.5mil|CornerRadius=3mil|HoleSize=0mil|Usage=FLASHONLY|Rotation=270.000|XOffset=0mil|YOffset=0mil|HoleType=Round|Shape=RoundedRectangle|*
%AMROUNDEDRECTD12*
21,1,0.0118,0.0236,0,0,270.0*
21,1,0.0059,0.0295,0,0,270.0*
1,1,0.0059,-0.0118,-0.0030*
1,1,0.0059,-0.0118,0.0030*
1,1,0.0059,0.0118,0.0030*
1,1,0.0059,0.0118,-0.0030*
%
%ADD12ROUNDEDRECTD12*%
%ADD13R,0.0846X0.0846*%
%ADD14C,0.0050*%
%ADD15C,0.0100*%
%ADD16C,0.0200*%
G36*
X001510Y002225D02*
X001568Y002213D01*
X001624Y002168D01*
Y001240D01*
X001550Y001153D01*
X001491Y001141D01*
X001442Y001108D01*
X001409Y001059D01*
X001397Y001000D01*
X001409Y000941D01*
X001442Y000892D01*
X001491Y000859D01*
X001550Y000847D01*
X001624Y000760D01*
Y000076D01*
X001240D01*
X001153Y000150D01*
X001141Y000209D01*
X001108Y000258D01*
X001059Y000291D01*
X001000Y000303D01*
X000941Y000291D01*
X000892Y000258D01*
X000808D01*
X000759Y000291D01*
X000700Y000303D01*
X000641Y000291D01*
X000592Y000258D01*
X000559Y000209D01*
X000547Y000150D01*
X000491Y000103D01*
X000419Y000116D01*
X000353Y000200D01*
X000341Y000259D01*
X000308Y000308D01*
X000259Y000341D01*
X000200Y000353D01*
X000176Y000348D01*
X000092Y000399D01*
X000076Y000418D01*
Y000532D01*
X000092Y000551D01*
X000176Y000602D01*
X000200Y000597D01*
X000259Y000609D01*
X000308Y000642D01*
X000341Y000691D01*
X000353Y000750D01*
X000341Y000809D01*
X000308Y000858D01*
X000291Y000941D01*
X000303Y001000D01*
X000291Y001059D01*
X000258Y001108D01*
Y001142D01*
X000291Y001191D01*
X000303Y001250D01*
X000291Y001309D01*
X000282Y001323D01*
X000288Y001348D01*
X000372Y001412D01*
X000400Y001406D01*
Y001600D01*
X000450D01*
Y001650D01*
X000644D01*
X000638Y001678D01*
X000632Y001687D01*
X000629Y001739D01*
X000702Y001833D01*
X000704Y001834D01*
X000831D01*
X000831Y001834D01*
X000869D01*
Y001834D01*
X000931Y001834D01*
X001087D01*
Y001834D01*
X001125Y001834D01*
X001125Y001834D01*
X001343D01*
Y002193D01*
X001382Y002228D01*
X001384Y002229D01*
X001473Y002249D01*
X001510Y002225D01*
D02*
G37*
%LPC*%
G36*
X000644Y001550D02*
X000500D01*
Y001406D01*
X000528Y001412D01*
X000594Y001456D01*
X000638Y001522D01*
X000644Y001550D01*
D02*
G37*
%LPD*%
D10*
X001234Y003469D02*
D03*
X000978D02*
D03*
X000722D02*
D03*
X000466D02*
D03*
Y002032D02*
D03*
X000722D02*
D03*
X000978D02*
D03*
X001234D02*
D03*
D11*
X000132Y003134D02*
D03*
Y002878D02*
D03*
Y002622D02*
D03*
Y002366D02*
D03*
X001568Y002622D02*
D03*
Y002878D02*
D03*
Y003134D02*
D03*
D12*
Y002366D02*
D03*
D13*
X000850Y002750D02*
D03*
D14*
X000132Y002366D02*
X000150Y002348D01*
Y001250D02*
Y002348D01*
X000850Y002750D02*
X000978Y002878D01*
X001568D01*
X000466Y002366D02*
X000850Y002750D01*
X000466Y002032D02*
Y002366D01*
X000450Y001600D02*
Y002000D01*
D15*
X000200Y003450D02*
X000450D01*
X000132Y003381D02*
X000200Y003450D01*
X000132Y003134D02*
Y003381D01*
D16*
X000200Y000750D02*
D03*
X000150Y001000D02*
D03*
Y001250D02*
D03*
X001000Y002000D02*
D03*
X000132Y002622D02*
D03*
Y002878D02*
D03*
X000722Y003469D02*
D03*
X000978D02*
D03*
X001568Y002622D02*
D03*
Y002366D02*
D03*
X000200Y000200D02*
D03*
X001550Y001000D02*
D03*
X000200Y003450D02*
D03*
X000450Y001600D02*
D03*
X000700Y000150D02*
D03*
X001000D02*
D03*
M02*
