G04 Layer_Physical_Order=3*
G04 Layer_Color=16440176*
%FSLAX24Y24*%
%MOIN*%
G70*
G01*
G75*
%ADD14C,0.0050*%
%ADD16C,0.0200*%
G36*
X574Y2568D02*
Y1869D01*
X500Y1818D01*
Y1600D01*
X400D01*
Y1794D01*
X372Y1788D01*
X308Y1746D01*
X294Y1748D01*
X208Y1778D01*
Y2493D01*
X240Y2514D01*
X273Y2564D01*
X284Y2622D01*
X279Y2650D01*
X332Y2739D01*
X341Y2748D01*
X387Y2755D01*
X574Y2568D01*
D02*
G37*
D14*
X132Y1671D02*
Y2622D01*
Y1671D02*
X325Y1478D01*
X800Y1000D02*
Y2650D01*
X200Y3250D02*
X800Y2650D01*
X200Y3250D02*
Y3450D01*
X1175Y1175D02*
Y2775D01*
X722Y3228D02*
X1175Y2775D01*
X722Y3228D02*
Y3469D01*
X1132D02*
X1275Y3325D01*
Y1125D02*
Y3325D01*
X200Y200D02*
Y400D01*
X800Y1000D01*
X700Y700D02*
X1175Y1175D01*
X700Y150D02*
Y700D01*
X1000Y150D02*
Y850D01*
X372Y2878D02*
X650Y2600D01*
X132Y2878D02*
X372D01*
X650Y1200D02*
Y2600D01*
X1000Y850D02*
X1275Y1125D01*
X200Y750D02*
X650Y1200D01*
X325Y1075D02*
Y1478D01*
X250Y1000D02*
X325Y1075D01*
X150Y1000D02*
X250D01*
X978Y3469D02*
X1132D01*
X1393Y1156D02*
Y2447D01*
Y1156D02*
X1550Y1000D01*
X1393Y2447D02*
X1568Y2622D01*
D16*
X200Y750D02*
D03*
X150Y1000D02*
D03*
X132Y2622D02*
D03*
Y2878D02*
D03*
X722Y3469D02*
D03*
X978D02*
D03*
X1568Y2622D02*
D03*
X200Y200D02*
D03*
X1550Y1000D02*
D03*
X200Y3450D02*
D03*
X450Y1600D02*
D03*
X700Y150D02*
D03*
X1000D02*
D03*
M02*
