G04 Layer_Color=8388736*
%FSAX24Y24*%
%MOIN*%
G70*
G01*
G75*
%ADD18R,0.0198X0.0375*%
%ADD19R,0.0375X0.0198*%
G04:AMPARAMS|DCode=20|XSize=19.8mil|YSize=37.5mil|CornerRadius=7mil|HoleSize=0mil|Usage=FLASHONLY|Rotation=270.000|XOffset=0mil|YOffset=0mil|HoleType=Round|Shape=RoundedRectangle|*
%AMROUNDEDRECTD20*
21,1,0.0198,0.0236,0,0,270.0*
21,1,0.0059,0.0375,0,0,270.0*
1,1,0.0139,-0.0118,-0.0030*
1,1,0.0139,-0.0118,0.0030*
1,1,0.0139,0.0118,0.0030*
1,1,0.0139,0.0118,-0.0030*
%
%ADD20ROUNDEDRECTD20*%
%ADD21R,0.0926X0.0926*%
%ADD22C,0.0280*%
D18*
X001234Y003469D02*
D03*
X000978D02*
D03*
X000722D02*
D03*
X000466D02*
D03*
Y002032D02*
D03*
X000722D02*
D03*
X000978D02*
D03*
X001234D02*
D03*
D19*
X000132Y003134D02*
D03*
Y002878D02*
D03*
Y002622D02*
D03*
Y002366D02*
D03*
X001568Y002622D02*
D03*
Y002878D02*
D03*
Y003134D02*
D03*
D20*
Y002366D02*
D03*
D21*
X000850Y002750D02*
D03*
D22*
X000200Y000750D02*
D03*
X000150Y001000D02*
D03*
Y001250D02*
D03*
X001000Y002000D02*
D03*
X000132Y002622D02*
D03*
Y002878D02*
D03*
X000722Y003469D02*
D03*
X000978D02*
D03*
X001568Y002622D02*
D03*
Y002366D02*
D03*
X000200Y000200D02*
D03*
X001550Y001000D02*
D03*
X000200Y003450D02*
D03*
X000450Y001600D02*
D03*
X000700Y000150D02*
D03*
X001000D02*
D03*
M02*
