G04 Layer_Physical_Order=2*
G04 Layer_Color=36540*
%FSAX24Y24*%
%MOIN*%
G70*
G01*
G75*
%ADD14C,0.0050*%
%ADD16C,0.0200*%
G36*
X001624Y002820D02*
X001568Y002775D01*
X001510Y002763D01*
X001460Y002730D01*
X001427Y002681D01*
X001416Y002622D01*
X001427Y002564D01*
X001453Y002494D01*
X001427Y002425D01*
X001416Y002366D01*
X001427Y002308D01*
X001460Y002258D01*
X001492Y002237D01*
Y001850D01*
X000444Y000803D01*
X000409Y000805D01*
X000328Y000828D01*
X000308Y000858D01*
X000291Y000941D01*
X000303Y001000D01*
X000291Y001059D01*
X000258Y001108D01*
Y001142D01*
X000291Y001191D01*
X000303Y001250D01*
X000291Y001309D01*
X000258Y001358D01*
X000209Y001391D01*
X000150Y001403D01*
X000076Y001490D01*
Y002424D01*
X000132Y002469D01*
X000190Y002481D01*
X000240Y002514D01*
X000273Y002564D01*
X000284Y002622D01*
X000273Y002681D01*
X000247Y002750D01*
X000273Y002819D01*
X000284Y002878D01*
X000273Y002936D01*
X000240Y002986D01*
X000190Y003019D01*
X000132Y003031D01*
X000076Y003076D01*
Y003232D01*
X000092Y003251D01*
X000176Y003302D01*
X000200Y003297D01*
X000259Y003309D01*
X000308Y003342D01*
X000341Y003391D01*
X000353Y003450D01*
X000348Y003474D01*
X000399Y003558D01*
X000408Y003565D01*
X000513Y003556D01*
X000570Y003474D01*
X000569Y003469D01*
X000581Y003410D01*
X000614Y003360D01*
X000664Y003327D01*
X000722Y003316D01*
X000781Y003327D01*
X000850Y003353D01*
X000919Y003327D01*
X000978Y003316D01*
X001036Y003327D01*
X001086Y003360D01*
X001119Y003410D01*
X001131Y003469D01*
X001130Y003474D01*
X001199Y003574D01*
X001624D01*
Y002820D01*
D02*
G37*
%LPC*%
G36*
X000644Y001550D02*
X000500D01*
Y001406D01*
X000528Y001412D01*
X000594Y001456D01*
X000638Y001522D01*
X000644Y001550D01*
D02*
G37*
G36*
X000400D02*
X000256D01*
X000262Y001522D01*
X000306Y001456D01*
X000372Y001412D01*
X000400Y001406D01*
Y001550D01*
D02*
G37*
G36*
Y001794D02*
X000372Y001788D01*
X000306Y001744D01*
X000262Y001678D01*
X000256Y001650D01*
X000400D01*
Y001794D01*
D02*
G37*
G36*
X001000Y002153D02*
X000941Y002141D01*
X000892Y002108D01*
X000859Y002059D01*
X000847Y002000D01*
X000859Y001941D01*
X000892Y001892D01*
X000941Y001859D01*
X001000Y001847D01*
X001059Y001859D01*
X001108Y001892D01*
X001141Y001941D01*
X001153Y002000D01*
X001141Y002059D01*
X001108Y002108D01*
X001059Y002141D01*
X001000Y002153D01*
D02*
G37*
G36*
X000500Y001794D02*
Y001650D01*
X000644D01*
X000638Y001678D01*
X000594Y001744D01*
X000528Y001788D01*
X000500Y001794D01*
D02*
G37*
%LPD*%
D14*
X001568Y001819D02*
Y002366D01*
X000200Y000450D02*
X001568Y001819D01*
X000200Y000200D02*
Y000450D01*
D16*
X001568Y002366D02*
D03*
X000200Y000200D02*
D03*
X000450Y001600D02*
D03*
M02*
