G04 Layer_Physical_Order=4*
G04 Layer_Color=16711680*
%FSAX24Y24*%
%MOIN*%
G70*
G01*
G75*
%ADD10R,0.0118X0.0295*%
%ADD11R,0.0295X0.0118*%
G04:AMPARAMS|DCode=12|XSize=11.8mil|YSize=29.5mil|CornerRadius=3mil|HoleSize=0mil|Usage=FLASHONLY|Rotation=270.000|XOffset=0mil|YOffset=0mil|HoleType=Round|Shape=RoundedRectangle|*
%AMROUNDEDRECTD12*
21,1,0.0118,0.0236,0,0,270.0*
21,1,0.0059,0.0295,0,0,270.0*
1,1,0.0059,-0.0118,-0.0030*
1,1,0.0059,-0.0118,0.0030*
1,1,0.0059,0.0118,0.0030*
1,1,0.0059,0.0118,-0.0030*
%
%ADD12ROUNDEDRECTD12*%
%ADD13R,0.0846X0.0846*%
%ADD14C,0.0050*%
%ADD16C,0.0200*%
G36*
X001624Y002820D02*
X001568Y002775D01*
X001510Y002763D01*
X001460Y002730D01*
X001427Y002681D01*
X001416Y002622D01*
X001427Y002564D01*
X001453Y002494D01*
X001427Y002425D01*
X001416Y002366D01*
X001427Y002308D01*
X001460Y002258D01*
X001492Y002237D01*
Y001432D01*
X001438Y001397D01*
X001343Y001454D01*
Y001766D01*
X001143D01*
X001110Y001800D01*
X001108Y001892D01*
X001141Y001941D01*
X001153Y002000D01*
X001141Y002059D01*
X001108Y002108D01*
X001059Y002141D01*
X001000Y002153D01*
X000941Y002141D01*
X000892Y002108D01*
X000859Y002059D01*
X000847Y002000D01*
X000859Y001941D01*
X000892Y001892D01*
X000864Y001799D01*
X000831Y001766D01*
X000625D01*
Y001816D01*
X000516D01*
Y001568D01*
X000450D01*
Y001550D01*
X000256D01*
X000262Y001522D01*
X000236Y001438D01*
X000128Y001429D01*
X000076Y001490D01*
Y002424D01*
X000132Y002469D01*
X000190Y002481D01*
X000240Y002514D01*
X000273Y002564D01*
X000284Y002622D01*
X000273Y002681D01*
X000247Y002750D01*
X000273Y002819D01*
X000284Y002878D01*
X000273Y002936D01*
X000240Y002986D01*
X000190Y003019D01*
X000132Y003031D01*
X000076Y003076D01*
Y003232D01*
X000092Y003251D01*
X000176Y003302D01*
X000200Y003297D01*
X000259Y003309D01*
X000308Y003342D01*
X000341Y003391D01*
X000353Y003450D01*
X000348Y003474D01*
X000399Y003558D01*
X000408Y003565D01*
X000513Y003556D01*
X000570Y003474D01*
X000569Y003469D01*
X000581Y003410D01*
X000614Y003360D01*
X000664Y003327D01*
X000722Y003316D01*
X000781Y003327D01*
X000850Y003353D01*
X000919Y003327D01*
X000978Y003316D01*
X001036Y003327D01*
X001086Y003360D01*
X001119Y003410D01*
X001131Y003469D01*
X001130Y003474D01*
X001199Y003574D01*
X001624D01*
Y002820D01*
D02*
G37*
%LPC*%
G36*
X000416Y001816D02*
X000307D01*
Y001745D01*
X000306Y001744D01*
X000262Y001678D01*
X000256Y001650D01*
X000416D01*
Y001816D01*
D02*
G37*
%LPD*%
D10*
X001234Y000132D02*
D03*
X000978D02*
D03*
X000722D02*
D03*
X000466D02*
D03*
Y001568D02*
D03*
X000722D02*
D03*
X000978D02*
D03*
X001234D02*
D03*
D11*
X000132Y000466D02*
D03*
Y000722D02*
D03*
Y000978D02*
D03*
Y001234D02*
D03*
X001568Y000978D02*
D03*
Y000722D02*
D03*
Y000466D02*
D03*
D12*
Y001234D02*
D03*
D13*
X000850Y000850D02*
D03*
D14*
X001568Y001268D02*
Y002366D01*
X000978Y001978D02*
X001000Y002000D01*
X000978Y001568D02*
Y001978D01*
X000850Y000850D02*
X000978Y000722D01*
X001568D01*
X000450Y001250D02*
Y001600D01*
Y001250D02*
X000850Y000850D01*
X000200Y000200D02*
X000269Y000132D01*
X000466D01*
X000132Y000269D02*
X000200Y000200D01*
X000132Y000269D02*
Y000466D01*
D16*
X000200Y000750D02*
D03*
X000150Y001000D02*
D03*
Y001250D02*
D03*
X001000Y002000D02*
D03*
X000132Y002622D02*
D03*
Y002878D02*
D03*
X000722Y003469D02*
D03*
X000978D02*
D03*
X001568Y002622D02*
D03*
Y002366D02*
D03*
X000200Y000200D02*
D03*
X001550Y001000D02*
D03*
X000200Y003450D02*
D03*
X000450Y001600D02*
D03*
X000700Y000150D02*
D03*
X001000D02*
D03*
M02*
